<?xml version="1.0" encoding="UTF-8" standalone="no"?>
<!-- Created with Inkscape (http://www.inkscape.org/) -->

<svg
   xmlns:dc="http://purl.org/dc/elements/1.1/"
   xmlns:cc="http://creativecommons.org/ns#"
   xmlns:rdf="http://www.w3.org/1999/02/22-rdf-syntax-ns#"
   xmlns:svg="http://www.w3.org/2000/svg"
   xmlns="http://www.w3.org/2000/svg"
   xmlns:sodipodi="http://sodipodi.sourceforge.net/DTD/sodipodi-0.dtd"
   xmlns:inkscape="http://www.inkscape.org/namespaces/inkscape"
   width="81.81562mm"
   height="59.266853mm"
   viewBox="0 0 289.89787 210.00067"
   id="svg2"
   version="1.1"
   inkscape:version="0.91 r13725"
   sodipodi:docname="TCPServer.svg">
  <defs
     id="defs4">
    <marker
       inkscape:stockid="Arrow1Lend"
       orient="auto"
       refY="0"
       refX="0"
       id="marker8993"
       style="overflow:visible"
       inkscape:isstock="true">
      <path
         id="path8995"
         d="M 0,0 5,-5 -12.5,0 5,5 0,0 Z"
         style="fill:#000000;fill-opacity:1;fill-rule:evenodd;stroke:#000000;stroke-width:1pt;stroke-opacity:1"
         transform="matrix(-0.8,0,0,-0.8,-10,0)"
         inkscape:connector-curvature="0" />
    </marker>
    <marker
       inkscape:isstock="true"
       style="overflow:visible"
       id="marker8773"
       refX="0"
       refY="0"
       orient="auto"
       inkscape:stockid="Arrow1Lstart">
      <path
         transform="matrix(0.8,0,0,0.8,10,0)"
         style="fill:#000000;fill-opacity:1;fill-rule:evenodd;stroke:#000000;stroke-width:1pt;stroke-opacity:1"
         d="M 0,0 5,-5 -12.5,0 5,5 0,0 Z"
         id="path8775"
         inkscape:connector-curvature="0" />
    </marker>
    <marker
       inkscape:isstock="true"
       style="overflow:visible"
       id="marker8359"
       refX="0"
       refY="0"
       orient="auto"
       inkscape:stockid="Arrow1Lstart">
      <path
         transform="matrix(0.8,0,0,0.8,10,0)"
         style="fill:#000000;fill-opacity:1;fill-rule:evenodd;stroke:#000000;stroke-width:1pt;stroke-opacity:1"
         d="M 0,0 5,-5 -12.5,0 5,5 0,0 Z"
         id="path8361"
         inkscape:connector-curvature="0" />
    </marker>
    <marker
       inkscape:isstock="true"
       style="overflow:visible"
       id="marker8155"
       refX="0"
       refY="0"
       orient="auto"
       inkscape:stockid="Arrow1Lend">
      <path
         transform="matrix(-0.8,0,0,-0.8,-10,0)"
         style="fill:#000000;fill-opacity:1;fill-rule:evenodd;stroke:#000000;stroke-width:1pt;stroke-opacity:1"
         d="M 0,0 5,-5 -12.5,0 5,5 0,0 Z"
         id="path8157"
         inkscape:connector-curvature="0" />
    </marker>
    <marker
       inkscape:stockid="Arrow1Lstart"
       orient="auto"
       refY="0"
       refX="0"
       id="marker7237"
       style="overflow:visible"
       inkscape:isstock="true">
      <path
         id="path7239"
         d="M 0,0 5,-5 -12.5,0 5,5 0,0 Z"
         style="fill:#000000;fill-opacity:1;fill-rule:evenodd;stroke:#000000;stroke-width:1pt;stroke-opacity:1"
         transform="matrix(0.8,0,0,0.8,10,0)"
         inkscape:connector-curvature="0" />
    </marker>
    <marker
       inkscape:stockid="Arrow1Lstart"
       orient="auto"
       refY="0"
       refX="0"
       id="marker7089"
       style="overflow:visible"
       inkscape:isstock="true">
      <path
         id="path7091"
         d="M 0,0 5,-5 -12.5,0 5,5 0,0 Z"
         style="fill:#000000;fill-opacity:1;fill-rule:evenodd;stroke:#000000;stroke-width:1pt;stroke-opacity:1"
         transform="matrix(0.8,0,0,0.8,10,0)"
         inkscape:connector-curvature="0" />
    </marker>
    <marker
       inkscape:stockid="Arrow1Lstart"
       orient="auto"
       refY="0"
       refX="0"
       id="marker6947"
       style="overflow:visible"
       inkscape:isstock="true">
      <path
         id="path6949"
         d="M 0,0 5,-5 -12.5,0 5,5 0,0 Z"
         style="fill:#000000;fill-opacity:1;fill-rule:evenodd;stroke:#000000;stroke-width:1pt;stroke-opacity:1"
         transform="matrix(0.8,0,0,0.8,10,0)"
         inkscape:connector-curvature="0" />
    </marker>
    <marker
       inkscape:stockid="Arrow1Lstart"
       orient="auto"
       refY="0"
       refX="0"
       id="marker6811"
       style="overflow:visible"
       inkscape:isstock="true">
      <path
         id="path6813"
         d="M 0,0 5,-5 -12.5,0 5,5 0,0 Z"
         style="fill:#000000;fill-opacity:1;fill-rule:evenodd;stroke:#000000;stroke-width:1pt;stroke-opacity:1"
         transform="matrix(0.8,0,0,0.8,10,0)"
         inkscape:connector-curvature="0" />
    </marker>
    <marker
       inkscape:stockid="Arrow1Lstart"
       orient="auto"
       refY="0"
       refX="0"
       id="marker6681"
       style="overflow:visible"
       inkscape:isstock="true">
      <path
         id="path6683"
         d="M 0,0 5,-5 -12.5,0 5,5 0,0 Z"
         style="fill:#000000;fill-opacity:1;fill-rule:evenodd;stroke:#000000;stroke-width:1pt;stroke-opacity:1"
         transform="matrix(0.8,0,0,0.8,10,0)"
         inkscape:connector-curvature="0" />
    </marker>
    <marker
       inkscape:isstock="true"
       style="overflow:visible"
       id="marker5353-7"
       refX="0"
       refY="0"
       orient="auto"
       inkscape:stockid="Arrow1Lstart">
      <path
         inkscape:connector-curvature="0"
         transform="matrix(0.8,0,0,0.8,10,0)"
         style="fill:#000000;fill-opacity:1;fill-rule:evenodd;stroke:#000000;stroke-width:1pt;stroke-opacity:1"
         d="M 0,0 5,-5 -12.5,0 5,5 0,0 Z"
         id="path5355-0" />
    </marker>
    <marker
       inkscape:isstock="true"
       style="overflow:visible"
       id="marker5447-9"
       refX="0"
       refY="0"
       orient="auto"
       inkscape:stockid="Arrow1Lend">
      <path
         inkscape:connector-curvature="0"
         transform="matrix(-0.8,0,0,-0.8,-10,0)"
         style="fill:#000000;fill-opacity:1;fill-rule:evenodd;stroke:#000000;stroke-width:1pt;stroke-opacity:1"
         d="M 0,0 5,-5 -12.5,0 5,5 0,0 Z"
         id="path5449-7" />
    </marker>
  </defs>
  <sodipodi:namedview
     id="base"
     pagecolor="#ffffff"
     bordercolor="#666666"
     borderopacity="1.0"
     inkscape:pageopacity="0.0"
     inkscape:pageshadow="2"
     inkscape:zoom="1"
     inkscape:cx="12.59389"
     inkscape:cy="158.60158"
     inkscape:document-units="px"
     inkscape:current-layer="layer1"
     showgrid="false"
     inkscape:window-width="1600"
     inkscape:window-height="837"
     inkscape:window-x="-8"
     inkscape:window-y="-8"
     inkscape:window-maximized="1"
     fit-margin-top="0"
     fit-margin-left="0"
     fit-margin-right="0"
     fit-margin-bottom="0" />
  <metadata
     id="metadata7">
    <rdf:RDF>
      <cc:Work
         rdf:about="">
        <dc:format>image/svg+xml</dc:format>
        <dc:type
           rdf:resource="http://purl.org/dc/dcmitype/StillImage" />
        <dc:title />
      </cc:Work>
    </rdf:RDF>
  </metadata>
  <g
     inkscape:label="Layer 1"
     inkscape:groupmode="layer"
     id="layer1"
     transform="translate(-79.775209,-642.36185)">
    <flowRoot
       xml:space="preserve"
       id="flowRoot4248"
       style="font-style:normal;font-weight:normal;font-size:40px;line-height:125%;font-family:sans-serif;letter-spacing:0px;word-spacing:0px;fill:#000000;fill-opacity:1;stroke:none;stroke-width:1px;stroke-linecap:butt;stroke-linejoin:miter;stroke-opacity:1"><flowRegion
         id="flowRegion4250"><rect
           id="rect4252"
           width="120.20815"
           height="50.204582"
           x="297.69196"
           y="464.75647" /></flowRegion><flowPara
         id="flowPara4254" /></flowRoot>    <g
       style="font-style:normal;font-weight:normal;font-size:14.36221504px;line-height:125%;font-family:sans-serif;letter-spacing:0px;word-spacing:0px;fill:#000000;fill-opacity:1;stroke:none;stroke-width:1px;stroke-linecap:butt;stroke-linejoin:miter;stroke-opacity:1"
       id="text4154-4">
      <path
         d="m 158.84225,728.32846 c -0.33033,-0.10054 -0.66066,-0.27289 -1.04844,-0.68939 -0.35905,-0.35906 -0.6463,-0.7612 -1.19206,-1.53676 -0.43087,-0.6463 -1.04844,-1.62293 -1.30696,-2.11124 1.07716,-0.45959 1.88145,-1.22079 1.88145,-2.4703 0,-0.89046 -0.38778,-1.55112 -0.991,-1.92454 -0.56012,-0.37342 -1.26387,-0.50268 -2.38412,-0.50268 l -3.70546,0 0,0.43087 c 1.14898,0.0862 1.26388,0.15798 1.26388,1.39313 l 0,5.83106 c 0,1.22079 -0.12926,1.32133 -1.32133,1.42186 l 0,0.41651 3.93525,0 0,-0.41651 c -1.19206,-0.10053 -1.32132,-0.20107 -1.32132,-1.42186 l 0,-2.29795 0.44523,0 c 0.74683,0 1.00535,0.17234 1.26387,0.58885 0.43087,0.70375 0.94791,1.60857 1.46495,2.32668 0.66066,0.9479 1.27823,1.26387 2.42721,1.32132 0.17235,0.0144 0.34469,0.0144 0.5314,0.0144 l 0.0575,-0.37341 z m -6.19011,-4.36612 0,-3.59055 c 0,-0.40214 0.0431,-0.56013 0.15798,-0.63194 0.1149,-0.0862 0.37342,-0.14362 0.78992,-0.14362 1.09153,0 2.12561,0.57449 2.12561,2.13997 0,0.80428 -0.22979,1.36441 -0.78992,1.80964 -0.37342,0.3016 -0.86173,0.4165 -1.60857,0.4165 l -0.67502,0 z"
         style="font-style:normal;font-variant:normal;font-weight:normal;font-stretch:normal;font-size:14.36221504px;line-height:125%;font-family:'Adobe Hebrew';-inkscape-font-specification:'Adobe Hebrew, Normal';text-align:start;writing-mode:lr-tb;text-anchor:start"
         id="path4487" />
      <path
         d="m 166.06779,727.8545 -0.40214,-0.0287 c -0.54576,-0.0287 -0.67502,-0.12926 -0.67502,-0.8761 l 0,-4.85443 c -0.21544,0.0575 -0.58885,0.1149 -1.00536,0.15799 -0.43086,0.0575 -0.93354,0.10053 -1.35005,0.1149 l 0,0.34469 0.51704,0.0862 c 0.47396,0.0862 0.61758,0.15799 0.61758,0.94791 l 0,3.40384 c -0.48832,0.45959 -1.03408,0.67503 -1.55112,0.67503 -0.66066,0 -1.26387,-0.35906 -1.26387,-1.62293 l 0,-1.96763 c 0,-0.97663 0,-1.66601 0.0431,-2.13997 -0.27288,0.0575 -0.67502,0.1149 -1.07716,0.15799 -0.41651,0.0718 -0.78993,0.10053 -1.1059,0.1149 l 0,0.34469 0.41651,0.10053 c 0.35905,0.0718 0.48831,0.15799 0.48831,0.93355 l 0,2.82935 c 0,1.57985 0.83301,2.18306 1.83837,2.18306 0.40214,0 0.71811,-0.12926 1.13461,-0.37342 0.43087,-0.22979 0.73248,-0.50267 1.07717,-0.74683 l 0,1.03408 0.10053,0.0862 c 0.28725,-0.0718 0.66067,-0.18671 1.06281,-0.28724 0.40214,-0.10054 0.81864,-0.18671 1.13461,-0.2298 l 0,-0.38778 z"
         style="font-style:normal;font-variant:normal;font-weight:normal;font-stretch:normal;font-size:14.36221504px;line-height:125%;font-family:'Adobe Hebrew';-inkscape-font-specification:'Adobe Hebrew, Normal';text-align:start;writing-mode:lr-tb;text-anchor:start"
         id="path4489" />
      <path
         d="m 169.92674,728.58698 0,-0.38778 c -0.9479,-0.0718 -1.0628,-0.17235 -1.0628,-1.16334 l 0,-8.83277 c -0.5314,0.18671 -1.46495,0.41651 -2.24051,0.50268 l 0,0.35906 c 0.91918,0.0862 1.00536,0.11489 1.00536,1.10589 l 0,6.86514 c 0,0.97663 -0.12926,1.07716 -1.04844,1.16334 l 0,0.38778 3.34639,0 z"
         style="font-style:normal;font-variant:normal;font-weight:normal;font-stretch:normal;font-size:14.36221504px;line-height:125%;font-family:'Adobe Hebrew';-inkscape-font-specification:'Adobe Hebrew, Normal';text-align:start;writing-mode:lr-tb;text-anchor:start"
         id="path4491" />
      <path
         d="m 175.7394,727.00713 c -0.5314,0.48832 -1.09153,0.71811 -1.68038,0.71811 -1.03408,0 -2.15433,-0.80428 -2.18306,-2.74318 1.73783,-0.0575 3.56183,-0.20107 3.82035,-0.24416 0.27289,-0.0575 0.33033,-0.17235 0.3447,-0.45959 0,-1.16334 -0.991,-2.25487 -2.22615,-2.25487 l -0.0144,0 c -0.7612,0 -1.56548,0.41651 -2.16869,1.09153 -0.60322,0.66066 -0.96227,1.55112 -0.96227,2.54211 0,1.65166 1.0628,3.10224 2.87244,3.10224 0.45959,0 1.49367,-0.25852 2.42722,-1.43622 l -0.2298,-0.31597 z m -2.28359,-4.42356 c 0.78992,0 1.27823,0.70375 1.27823,1.46495 -0.0144,0.21543 -0.10053,0.28724 -0.35905,0.28724 -0.81865,0.0287 -1.62293,0.0431 -2.41285,0.0431 0.20107,-1.20643 0.84737,-1.79528 1.47931,-1.79528 l 0.0144,0 z"
         style="font-style:normal;font-variant:normal;font-weight:normal;font-stretch:normal;font-size:14.36221504px;line-height:125%;font-family:'Adobe Hebrew';-inkscape-font-specification:'Adobe Hebrew, Normal';text-align:start;writing-mode:lr-tb;text-anchor:start"
         id="path4493" />
    </g>
    <path
       style="color:#000000;font-style:normal;font-variant:normal;font-weight:normal;font-stretch:normal;font-size:medium;line-height:normal;font-family:sans-serif;text-indent:0;text-align:start;text-decoration:none;text-decoration-line:none;text-decoration-style:solid;text-decoration-color:#000000;letter-spacing:normal;word-spacing:normal;text-transform:none;direction:ltr;block-progression:tb;writing-mode:lr-tb;baseline-shift:baseline;text-anchor:start;white-space:normal;clip-rule:nonzero;display:inline;overflow:visible;visibility:visible;opacity:1;isolation:auto;mix-blend-mode:normal;color-interpolation:sRGB;color-interpolation-filters:linearRGB;solid-color:#000000;solid-opacity:1;fill:#000000;fill-opacity:1;fill-rule:nonzero;stroke:none;stroke-width:1.54138291;stroke-linecap:butt;stroke-linejoin:miter;stroke-miterlimit:4;stroke-dasharray:none;stroke-dashoffset:0;stroke-opacity:1;color-rendering:auto;image-rendering:auto;shape-rendering:auto;text-rendering:auto;enable-background:accumulate"
       d="m 136.2832,760.18359 0,0.77149 0,27.23437 56.19141,0 0,-28.00586 -56.19141,0 z m 1.54102,1.54102 53.10937,0 0,24.92383 -53.10937,0 0,-24.92383 z"
       id="rect4152-7-9"
       inkscape:connector-curvature="0" />
    <g
       style="font-style:normal;font-weight:normal;font-size:14.36221504px;line-height:125%;font-family:sans-serif;letter-spacing:0px;word-spacing:0px;fill:#000000;fill-opacity:1;stroke:none;stroke-width:1px;stroke-linecap:butt;stroke-linejoin:miter;stroke-opacity:1"
       id="text4154-9-0">
      <path
         d="m 139.29168,769.54088 0,0.43086 c 1.09153,0.0718 1.20642,0.12926 1.20642,1.42186 l 0,5.80234 c 0,1.20642 -0.11489,1.32132 -1.2926,1.43622 l 0,0.40214 4.06451,0 0,-0.40214 c -1.33568,-0.1149 -1.46494,-0.18671 -1.46494,-1.42186 l 0,-2.26923 1.09152,0.28724 c 0.17235,0.0144 0.44523,0.0144 0.67503,-0.0144 1.45058,-0.17234 2.87244,-1.09153 2.87244,-3.0017 0,-0.94791 -0.37342,-1.63729 -0.96227,-2.06816 -0.58885,-0.43087 -1.42186,-0.60321 -2.4703,-0.60321 l -3.71981,0 z m 2.51339,1.33568 c 0,-0.4165 0.0431,-0.58885 0.15798,-0.67502 0.10054,-0.10054 0.40214,-0.17235 0.80428,-0.17235 1.17771,0 2.19742,0.6463 2.19742,2.24051 0,1.86709 -1.1777,2.3554 -2.11124,2.3554 -0.45959,0 -0.86174,-0.10053 -1.04844,-0.17234 l 0,-3.5762 z"
         style="font-style:normal;font-variant:normal;font-weight:normal;font-stretch:normal;font-size:14.36221504px;line-height:125%;font-family:'Adobe Hebrew';-inkscape-font-specification:'Adobe Hebrew, Normal';text-align:start;writing-mode:lr-tb;text-anchor:start"
         id="path4469" />
      <path
         d="m 149.57817,774.05061 0,-1.60856 c -0.71812,0.3016 -1.4075,0.47395 -2.12561,0.58885 l 0,0.33033 c 0.81864,0.11489 0.90482,0.17234 0.90482,1.12025 l 0,3.03043 c 0,0.96227 -0.1149,1.0628 -1.03408,1.13461 l 0,0.38778 3.47565,0 0,-0.38778 c -1.14897,-0.0718 -1.22078,-0.17234 -1.22078,-1.14898 l 0,-2.62828 c 0.31596,-0.80428 0.78992,-1.23515 1.14897,-1.23515 0.24416,0 0.40214,0.10053 0.6463,0.31597 0.0862,0.0862 0.21544,0.10053 0.38778,0.0287 0.28725,-0.12926 0.50268,-0.44523 0.50268,-0.7612 0,-0.34469 -0.35906,-0.74683 -0.8761,-0.74683 -0.68938,0 -1.32132,0.80428 -1.76655,1.57984 l -0.0431,0 z"
         style="font-style:normal;font-variant:normal;font-weight:normal;font-stretch:normal;font-size:14.36221504px;line-height:125%;font-family:'Adobe Hebrew';-inkscape-font-specification:'Adobe Hebrew, Normal';text-align:start;writing-mode:lr-tb;text-anchor:start"
         id="path4471" />
      <path
         d="m 156.02747,772.47077 c -1.36441,0 -3.26022,1.10589 -3.26022,3.51874 0,1.62293 1.19206,3.21714 3.26022,3.21714 1.46495,0 3.21714,-1.12025 3.21714,-3.4613 0,-1.79527 -1.36441,-3.27458 -3.20277,-3.27458 l -0.0144,0 z m -0.15798,0.50268 c 1.24951,0 1.9389,1.35005 1.9389,3.08787 0,2.02508 -0.74684,2.65701 -1.62293,2.65701 -1.19207,0 -1.98199,-1.37877 -1.98199,-3.21713 0,-1.6373 0.78992,-2.52775 1.65166,-2.52775 l 0.0144,0 z"
         style="font-style:normal;font-variant:normal;font-weight:normal;font-stretch:normal;font-size:14.36221504px;line-height:125%;font-family:'Adobe Hebrew';-inkscape-font-specification:'Adobe Hebrew, Normal';text-align:start;writing-mode:lr-tb;text-anchor:start"
         id="path4473" />
      <path
         d="m 164.09298,778.48854 -0.14362,-0.37342 c -0.20107,0.10054 -0.53141,0.2298 -0.8761,0.2298 -0.38778,0 -0.87609,-0.20108 -0.87609,-1.37878 l 0,-3.71981 1.55112,0 c 0.1867,-0.1149 0.22979,-0.43087 0.0862,-0.60321 l -1.63729,0 0,-2.01071 -0.21544,-0.0431 -1.01971,1.00535 0,1.04845 -0.6463,0 -0.41651,0.44522 0.0574,0.15799 1.00536,0 0,4.20813 c 0,1.19206 0.54576,1.75219 1.49367,1.75219 0.12926,0 0.35905,-0.0575 0.61757,-0.18671 l 1.01972,-0.5314 z"
         style="font-style:normal;font-variant:normal;font-weight:normal;font-stretch:normal;font-size:14.36221504px;line-height:125%;font-family:'Adobe Hebrew';-inkscape-font-specification:'Adobe Hebrew, Normal';text-align:start;writing-mode:lr-tb;text-anchor:start"
         id="path4475" />
      <path
         d="m 167.89313,772.47077 c -1.36441,0 -3.26022,1.10589 -3.26022,3.51874 0,1.62293 1.19206,3.21714 3.26022,3.21714 1.46495,0 3.21714,-1.12025 3.21714,-3.4613 0,-1.79527 -1.36441,-3.27458 -3.20278,-3.27458 l -0.0144,0 z m -0.15798,0.50268 c 1.24951,0 1.9389,1.35005 1.9389,3.08787 0,2.02508 -0.74684,2.65701 -1.62293,2.65701 -1.19207,0 -1.98199,-1.37877 -1.98199,-3.21713 0,-1.6373 0.78992,-2.52775 1.65166,-2.52775 l 0.0144,0 z"
         style="font-style:normal;font-variant:normal;font-weight:normal;font-stretch:normal;font-size:14.36221504px;line-height:125%;font-family:'Adobe Hebrew';-inkscape-font-specification:'Adobe Hebrew, Normal';text-align:start;writing-mode:lr-tb;text-anchor:start"
         id="path4477" />
      <path
         d="m 177.5892,777.38265 c -0.67503,0.63193 -1.14898,0.78992 -1.78092,0.78992 -0.80428,0 -2.21178,-0.66066 -2.21178,-2.67137 0,-1.53676 0.83301,-2.31232 1.76655,-2.31232 0.50268,0 1.03408,0.18671 1.47931,0.61758 0.12926,0.11489 0.20107,0.15798 0.28725,0.15798 0.17234,0 0.50267,-0.33033 0.50267,-0.6463 0,-0.17235 -0.0431,-0.28724 -0.24415,-0.44523 -0.21544,-0.20107 -0.71812,-0.40214 -1.32133,-0.40214 l -0.0144,0 c -0.54576,0 -1.43622,0.25852 -2.22614,0.83301 -0.991,0.7612 -1.47931,1.73783 -1.47931,2.85808 0,1.56548 1.10589,3.04479 2.98734,3.04479 0.86173,0 1.85272,-0.63194 2.49902,-1.50803 l -0.24415,-0.31597 z"
         style="font-style:normal;font-variant:normal;font-weight:normal;font-stretch:normal;font-size:14.36221504px;line-height:125%;font-family:'Adobe Hebrew';-inkscape-font-specification:'Adobe Hebrew, Normal';text-align:start;writing-mode:lr-tb;text-anchor:start"
         id="path4479" />
      <path
         d="m 181.83458,772.47077 c -1.36441,0 -3.26022,1.10589 -3.26022,3.51874 0,1.62293 1.19206,3.21714 3.26022,3.21714 1.46494,0 3.21713,-1.12025 3.21713,-3.4613 0,-1.79527 -1.36441,-3.27458 -3.20277,-3.27458 l -0.0144,0 z m -0.15799,0.50268 c 1.24952,0 1.9389,1.35005 1.9389,3.08787 0,2.02508 -0.74683,2.65701 -1.62293,2.65701 -1.19206,0 -1.98198,-1.37877 -1.98198,-3.21713 0,-1.6373 0.78992,-2.52775 1.65165,-2.52775 l 0.0144,0 z"
         style="font-style:normal;font-variant:normal;font-weight:normal;font-stretch:normal;font-size:14.36221504px;line-height:125%;font-family:'Adobe Hebrew';-inkscape-font-specification:'Adobe Hebrew, Normal';text-align:start;writing-mode:lr-tb;text-anchor:start"
         id="path4481" />
      <path
         d="m 189.08009,779.0343 0,-0.38778 c -0.94791,-0.0718 -1.0628,-0.17234 -1.0628,-1.16334 l 0,-8.83276 c -0.53141,0.18671 -1.46495,0.4165 -2.24051,0.50268 l 0,0.35905 c 0.91918,0.0862 1.00536,0.1149 1.00536,1.10589 l 0,6.86514 c 0,0.97663 -0.12926,1.07717 -1.04845,1.16334 l 0,0.38778 3.3464,0 z"
         style="font-style:normal;font-variant:normal;font-weight:normal;font-stretch:normal;font-size:14.36221504px;line-height:125%;font-family:'Adobe Hebrew';-inkscape-font-specification:'Adobe Hebrew, Normal';text-align:start;writing-mode:lr-tb;text-anchor:start"
         id="path4483" />
    </g>
    <path
       style="color:#000000;font-style:normal;font-variant:normal;font-weight:normal;font-stretch:normal;font-size:medium;line-height:normal;font-family:sans-serif;text-indent:0;text-align:start;text-decoration:none;text-decoration-line:none;text-decoration-style:solid;text-decoration-color:#000000;letter-spacing:normal;word-spacing:normal;text-transform:none;direction:ltr;block-progression:tb;writing-mode:lr-tb;baseline-shift:baseline;text-anchor:start;white-space:normal;clip-rule:nonzero;display:inline;overflow:visible;visibility:visible;opacity:1;isolation:auto;mix-blend-mode:normal;color-interpolation:sRGB;color-interpolation-filters:linearRGB;solid-color:#000000;solid-opacity:1;fill:#000000;fill-opacity:1;fill-rule:nonzero;stroke:none;stroke-width:1.54138291;stroke-linecap:butt;stroke-linejoin:miter;stroke-miterlimit:4;stroke-dasharray:none;stroke-dashoffset:0;stroke-opacity:1;color-rendering:auto;image-rendering:auto;shape-rendering:auto;text-rendering:auto;enable-background:accumulate"
       d="m 136.2832,709.19727 0,0.77148 0,27.23633 56.19141,0 0,-28.00781 -56.19141,0 z m 1.54102,1.54296 53.10937,0 0,24.92188 -53.10937,0 0,-24.92188 z"
       id="rect4152-7-2-21"
       inkscape:connector-curvature="0" />
    <path
       style="color:#000000;font-style:normal;font-variant:normal;font-weight:normal;font-stretch:normal;font-size:medium;line-height:normal;font-family:sans-serif;text-indent:0;text-align:start;text-decoration:none;text-decoration-line:none;text-decoration-style:solid;text-decoration-color:#000000;letter-spacing:normal;word-spacing:normal;text-transform:none;direction:ltr;block-progression:tb;writing-mode:lr-tb;baseline-shift:baseline;text-anchor:start;white-space:normal;clip-rule:nonzero;display:inline;overflow:visible;visibility:visible;opacity:1;isolation:auto;mix-blend-mode:normal;color-interpolation:sRGB;color-interpolation-filters:linearRGB;solid-color:#000000;solid-opacity:1;fill:#000000;fill-opacity:1;fill-rule:nonzero;stroke:none;stroke-width:1.77400005;stroke-linecap:butt;stroke-linejoin:miter;stroke-miterlimit:4;stroke-dasharray:none;stroke-dashoffset:0;stroke-opacity:1;color-rendering:auto;image-rendering:auto;shape-rendering:auto;text-rendering:auto;enable-background:accumulate"
       d="m 88.746094,685.82617 0,0.88867 0,126.83789 147.275386,0 0,-127.72656 -147.275386,0 z m 1.773437,1.77539 143.726559,0 0,124.17578 -143.726559,0 0,-124.17578 z"
       id="rect4213-9"
       inkscape:connector-curvature="0" />
    <path
       style="color:#000000;font-style:normal;font-variant:normal;font-weight:normal;font-stretch:normal;font-size:medium;line-height:normal;font-family:sans-serif;text-indent:0;text-align:start;text-decoration:none;text-decoration-line:none;text-decoration-style:solid;text-decoration-color:#000000;letter-spacing:normal;word-spacing:normal;text-transform:none;direction:ltr;block-progression:tb;writing-mode:lr-tb;baseline-shift:baseline;text-anchor:start;white-space:normal;clip-rule:nonzero;display:inline;overflow:visible;visibility:visible;opacity:1;isolation:auto;mix-blend-mode:normal;color-interpolation:sRGB;color-interpolation-filters:linearRGB;solid-color:#000000;solid-opacity:1;fill:#000000;fill-opacity:1;fill-rule:nonzero;stroke:none;stroke-width:1.17742693;stroke-linecap:butt;stroke-linejoin:miter;stroke-miterlimit:4;stroke-dasharray:none;stroke-dashoffset:0;stroke-opacity:1;color-rendering:auto;image-rendering:auto;shape-rendering:auto;text-rendering:auto;enable-background:accumulate"
       d="m 332.90039,642.36133 c -10.06085,0 -19.17207,1.76006 -25.82031,4.64062 -3.32412,1.44029 -6.03551,3.1609 -7.94141,5.11328 -1.90589,1.95239 -3.01172,4.16544 -3.01172,6.51368 0,2.34824 1.10583,4.56128 3.01172,6.51367 1.9059,1.95239 4.61729,3.67104 7.94141,5.11133 6.64824,2.88056 15.75946,4.64062 25.82031,4.64062 10.06085,0 19.17207,-1.76006 25.82031,-4.64062 3.32412,-1.44029 6.03551,-3.15894 7.94141,-5.11133 1.90589,-1.95239 3.01172,-4.16543 3.01172,-6.51367 0,-2.34824 -1.10583,-4.56129 -3.01172,-6.51368 -1.9059,-1.95238 -4.61729,-3.67299 -7.94141,-5.11328 -6.64824,-2.88056 -15.75946,-4.64062 -25.82031,-4.64062 z m 0,1.17773 c 9.923,0 18.90379,1.74927 25.35156,4.54297 3.22389,1.39685 5.81224,3.05651 7.56836,4.85547 1.75612,1.79896 2.67578,3.71032 2.67578,5.69141 0,1.98108 -0.91966,3.89244 -2.67578,5.6914 -1.75612,1.79896 -4.34447,3.45667 -7.56836,4.85352 -6.44777,2.7937 -15.42856,4.54297 -25.35156,4.54297 -9.923,0 -18.90379,-1.74927 -25.35156,-4.54297 -3.22389,-1.39685 -5.81224,-3.05456 -7.56836,-4.85352 -1.75612,-1.79896 -2.67578,-3.71032 -2.67578,-5.6914 0,-1.98109 0.91966,-3.89245 2.67578,-5.69141 1.75612,-1.79896 4.34447,-3.45862 7.56836,-4.85547 6.44777,-2.7937 15.42856,-4.54297 25.35156,-4.54297 z"
       id="path4288-2-9"
       inkscape:connector-curvature="0" />
    <g
       style="font-style:normal;font-variant:normal;font-weight:normal;font-stretch:normal;font-size:25px;line-height:125%;font-family:'Adobe Fangsong Std';-inkscape-font-specification:'Adobe Fangsong Std, Normal';text-align:start;letter-spacing:0px;word-spacing:0px;writing-mode:lr-tb;text-anchor:start;fill:#000000;fill-opacity:1;stroke:none;stroke-width:1px;stroke-linecap:butt;stroke-linejoin:miter;stroke-opacity:1"
       id="text4290-7-2">
      <path
         d="m 317.20715,654.44271 c -0.22,-1.04 -0.38,-2.2 -0.52,-3.34 -1.62,-0.64 -2.52,-0.68 -3.36,-0.68 -3.72,0 -6.2,2.52 -6.2,7.56 0,2.7 0.54,4.66 1.72,6.08 0.98,1.12 2.38,1.76 4.12,1.76 2.16,0 3.88,-1.36 4.74,-4 l -0.8,-0.22 c -0.54,1.66 -1.62,3.32 -3.74,3.32 -1.12,0 -4.28,-0.66 -4.28,-7.02 0,-4.04 1.44,-6.7 4.48,-6.7 2.36,0 2.6,1.08 3.06,3.4 l 0.78,-0.16 z"
         style="font-style:normal;font-variant:normal;font-weight:normal;font-stretch:normal;font-size:20px;line-height:125%;font-family:'Adobe Kaiti Std';-inkscape-font-specification:'Adobe Kaiti Std, Normal';text-align:start;writing-mode:lr-tb;text-anchor:start"
         id="path4453" />
      <path
         d="m 319.1509,665.52271 4.44,0 0,-0.56 c -1.34,0 -1.42,-0.16 -1.42,-1.46 l 0,-13.28 -0.18,-0.14 c -0.92,0.52 -1.66,0.76 -2.84,0.94 l 0,0.48 c 1.42,0 1.48,0.12 1.48,1.32 l 0,10.66 c 0,1.32 -0.06,1.48 -1.48,1.48 l 0,0.56 z"
         style="font-style:normal;font-variant:normal;font-weight:normal;font-stretch:normal;font-size:20px;line-height:125%;font-family:'Adobe Kaiti Std';-inkscape-font-specification:'Adobe Kaiti Std, Normal';text-align:start;writing-mode:lr-tb;text-anchor:start"
         id="path4455" />
      <path
         d="m 326.83872,651.50271 c -0.54,0 -0.98,0.46 -0.98,1.26 0,0.8 0.44,1.26 0.98,1.26 0.56,0 1.02,-0.46 1.02,-1.26 0,-0.74 -0.4,-1.26 -1.02,-1.26 z m 0.72,3.74 c -0.94,0.52 -1.68,0.78 -2.84,0.94 l 0,0.48 c 1.4,0 1.48,0.02 1.48,1.36 l 0,5.46 c 0,1.32 -0.1,1.48 -1.48,1.48 l 0,0.56 4.42,0 0,-0.56 c -1.3,0 -1.38,-0.16 -1.38,-1.46 l 0,-8.14 -0.2,-0.12 z"
         style="font-style:normal;font-variant:normal;font-weight:normal;font-stretch:normal;font-size:20px;line-height:125%;font-family:'Adobe Kaiti Std';-inkscape-font-specification:'Adobe Kaiti Std, Normal';text-align:start;writing-mode:lr-tb;text-anchor:start"
         id="path4457" />
      <path
         d="m 335.04653,665.76271 c 1.14,0 2.72,-0.42 3.8,-2.38 l -0.58,-0.3 c -0.34,0.7 -1.3,1.94 -3.1,1.94 -0.98,0 -1.86,-0.5 -2.38,-1.32 -0.58,-0.94 -0.74,-2.08 -0.74,-3.4 l 6.78,0 c 0,-2.44 -1.02,-5.06 -4.1,-5.06 -2.9,0 -4.34,2.42 -4.34,5.02 0,3.8 1.82,5.5 4.56,5.5 l 0.1,0 z m -3,-6.16 c 0.14,-2.94 1.68,-3.66 2.68,-3.66 2.18,0 2.5,2.4 2.5,3.66 l -5.18,0 z"
         style="font-style:normal;font-variant:normal;font-weight:normal;font-stretch:normal;font-size:20px;line-height:125%;font-family:'Adobe Kaiti Std';-inkscape-font-specification:'Adobe Kaiti Std, Normal';text-align:start;writing-mode:lr-tb;text-anchor:start"
         id="path4459" />
      <path
         d="m 343.14465,657.10271 -0.08,-1.72 -0.24,-0.14 c -0.74,0.52 -1.5,0.76 -2.52,0.94 l 0,0.48 c 1.2,-0.02 1.32,0.12 1.32,1.42 l 0,5.4 c 0,1.36 -0.1,1.48 -1.32,1.48 l 0,0.56 4,0 0,-0.56 c -1.08,0 -1.12,-0.14 -1.12,-1.46 l 0,-5.38 c 0.94,-1.24 2,-2.06 2.98,-2.06 1.34,0 1.96,0.66 1.96,2.52 l 0,4.9 c 0,1.34 -0.08,1.48 -1.16,1.48 l 0,0.56 3.84,0 0,-0.56 c -1.02,0 -1.12,-0.18 -1.12,-1.44 l 0,-5 c 0,-2.02 -0.84,-3.28 -3.08,-3.28 -1.3,0 -2.46,0.7 -3.42,1.86 l -0.04,0 z"
         style="font-style:normal;font-variant:normal;font-weight:normal;font-stretch:normal;font-size:20px;line-height:125%;font-family:'Adobe Kaiti Std';-inkscape-font-specification:'Adobe Kaiti Std, Normal';text-align:start;writing-mode:lr-tb;text-anchor:start"
         id="path4461" />
      <path
         d="m 353.10715,656.20271 0,7.16 c 0,1.92 1.22,2.4 2.4,2.4 0.94,0 1.72,-0.28 2.4,-0.88 l -0.34,-0.5 c -0.56,0.4 -1.04,0.6 -1.64,0.6 -0.86,0 -1.28,-0.54 -1.28,-1.72 l 0,-7.06 2.72,0 0,-0.7 -2.72,0 0,-2.82 -0.54,0 c -0.4,2.08 -0.88,2.88 -2.46,3 l 0,0.52 1.46,0 z"
         style="font-style:normal;font-variant:normal;font-weight:normal;font-stretch:normal;font-size:20px;line-height:125%;font-family:'Adobe Kaiti Std';-inkscape-font-specification:'Adobe Kaiti Std, Normal';text-align:start;writing-mode:lr-tb;text-anchor:start"
         id="path4463" />
    </g>
    <path
       style="color:#000000;font-style:normal;font-variant:normal;font-weight:normal;font-stretch:normal;font-size:medium;line-height:normal;font-family:sans-serif;text-indent:0;text-align:start;text-decoration:none;text-decoration-line:none;text-decoration-style:solid;text-decoration-color:#000000;letter-spacing:normal;word-spacing:normal;text-transform:none;direction:ltr;block-progression:tb;writing-mode:lr-tb;baseline-shift:baseline;text-anchor:start;white-space:normal;clip-rule:nonzero;display:inline;overflow:visible;visibility:visible;opacity:1;isolation:auto;mix-blend-mode:normal;color-interpolation:sRGB;color-interpolation-filters:linearRGB;solid-color:#000000;solid-opacity:1;fill:#000000;fill-opacity:1;fill-rule:nonzero;stroke:none;stroke-width:1.17742693;stroke-linecap:butt;stroke-linejoin:miter;stroke-miterlimit:4;stroke-dasharray:none;stroke-dashoffset:0;stroke-opacity:1;color-rendering:auto;image-rendering:auto;shape-rendering:auto;text-rendering:auto;enable-background:accumulate"
       d="m 332.90039,677.83008 c -10.06085,0 -19.17207,1.76006 -25.82031,4.64062 -3.32412,1.44029 -6.03551,3.15894 -7.94141,5.11133 -1.90589,1.95239 -3.01172,4.16543 -3.01172,6.51367 0,2.34824 1.10583,4.56129 3.01172,6.51368 1.9059,1.95238 4.61729,3.67299 7.94141,5.11328 6.64824,2.88056 15.75946,4.64062 25.82031,4.64062 10.06085,0 19.17207,-1.76006 25.82031,-4.64062 3.32412,-1.44029 6.03551,-3.1609 7.94141,-5.11328 1.90589,-1.95239 3.00977,-4.16544 3.00977,-6.51368 0,-2.34824 -1.10388,-4.56128 -3.00977,-6.51367 -1.9059,-1.95239 -4.61729,-3.67104 -7.94141,-5.11133 -6.64824,-2.88056 -15.75946,-4.64062 -25.82031,-4.64062 z m 0,1.17578 c 9.923,0 18.90379,1.75122 25.35156,4.54492 3.22389,1.39685 5.81029,3.05456 7.56641,4.85352 1.75612,1.79896 2.67773,3.71032 2.67773,5.6914 0,1.98109 -0.92161,3.89245 -2.67773,5.69141 -1.75612,1.79896 -4.34252,3.45862 -7.56641,4.85547 -6.44777,2.7937 -15.42856,4.54297 -25.35156,4.54297 -9.92299,0 -18.90379,-1.74927 -25.35156,-4.54297 -3.22389,-1.39685 -5.81224,-3.05651 -7.56836,-4.85547 -1.75612,-1.79896 -2.67578,-3.71032 -2.67578,-5.69141 0,-1.98108 0.91966,-3.89244 2.67578,-5.6914 1.75612,-1.79896 4.34447,-3.45667 7.56836,-4.85352 6.44777,-2.7937 15.42857,-4.54492 25.35156,-4.54492 z"
       id="ellipse4719-2"
       inkscape:connector-curvature="0" />
    <g
       style="font-style:normal;font-variant:normal;font-weight:normal;font-stretch:normal;font-size:25px;line-height:125%;font-family:'Adobe Fangsong Std';-inkscape-font-specification:'Adobe Fangsong Std, Normal';text-align:start;letter-spacing:0px;word-spacing:0px;writing-mode:lr-tb;text-anchor:start;fill:#000000;fill-opacity:1;stroke:none;stroke-width:1px;stroke-linecap:butt;stroke-linejoin:miter;stroke-opacity:1"
       id="text4721-46">
      <path
         d="m 317.20676,689.91023 c -0.22,-1.04 -0.38,-2.2 -0.52,-3.34 -1.62,-0.64 -2.52,-0.68 -3.36,-0.68 -3.72,0 -6.2,2.52 -6.2,7.56 0,2.7 0.54,4.66 1.72,6.08 0.98,1.12 2.38,1.76 4.12,1.76 2.16,0 3.88,-1.36 4.74,-4 l -0.8,-0.22 c -0.54,1.66 -1.62,3.32 -3.74,3.32 -1.12,0 -4.28,-0.66 -4.28,-7.02 0,-4.04 1.44,-6.7 4.48,-6.7 2.36,0 2.6,1.08 3.06,3.4 l 0.78,-0.16 z"
         style="font-style:normal;font-variant:normal;font-weight:normal;font-stretch:normal;font-size:20px;line-height:125%;font-family:'Adobe Kaiti Std';-inkscape-font-specification:'Adobe Kaiti Std, Normal';text-align:start;writing-mode:lr-tb;text-anchor:start"
         id="path4439" />
      <path
         d="m 319.15051,700.99023 4.44,0 0,-0.56 c -1.34,0 -1.42,-0.16 -1.42,-1.46 l 0,-13.28 -0.18,-0.14 c -0.92,0.52 -1.66,0.76 -2.84,0.94 l 0,0.48 c 1.42,0 1.48,0.12 1.48,1.32 l 0,10.66 c 0,1.32 -0.06,1.48 -1.48,1.48 l 0,0.56 z"
         style="font-style:normal;font-variant:normal;font-weight:normal;font-stretch:normal;font-size:20px;line-height:125%;font-family:'Adobe Kaiti Std';-inkscape-font-specification:'Adobe Kaiti Std, Normal';text-align:start;writing-mode:lr-tb;text-anchor:start"
         id="path4441" />
      <path
         d="m 326.83832,686.97023 c -0.54,0 -0.98,0.46 -0.98,1.26 0,0.8 0.44,1.26 0.98,1.26 0.56,0 1.02,-0.46 1.02,-1.26 0,-0.74 -0.4,-1.26 -1.02,-1.26 z m 0.72,3.74 c -0.94,0.52 -1.68,0.78 -2.84,0.94 l 0,0.48 c 1.4,0 1.48,0.02 1.48,1.36 l 0,5.46 c 0,1.32 -0.1,1.48 -1.48,1.48 l 0,0.56 4.42,0 0,-0.56 c -1.3,0 -1.38,-0.16 -1.38,-1.46 l 0,-8.14 -0.2,-0.12 z"
         style="font-style:normal;font-variant:normal;font-weight:normal;font-stretch:normal;font-size:20px;line-height:125%;font-family:'Adobe Kaiti Std';-inkscape-font-specification:'Adobe Kaiti Std, Normal';text-align:start;writing-mode:lr-tb;text-anchor:start"
         id="path4443" />
      <path
         d="m 335.04613,701.23023 c 1.14,0 2.72,-0.42 3.8,-2.38 l -0.58,-0.3 c -0.34,0.7 -1.3,1.94 -3.1,1.94 -0.98,0 -1.86,-0.5 -2.38,-1.32 -0.58,-0.94 -0.74,-2.08 -0.74,-3.4 l 6.78,0 c 0,-2.44 -1.02,-5.06 -4.1,-5.06 -2.9,0 -4.34,2.42 -4.34,5.02 0,3.8 1.82,5.5 4.56,5.5 l 0.1,0 z m -3,-6.16 c 0.14,-2.94 1.68,-3.66 2.68,-3.66 2.18,0 2.5,2.4 2.5,3.66 l -5.18,0 z"
         style="font-style:normal;font-variant:normal;font-weight:normal;font-stretch:normal;font-size:20px;line-height:125%;font-family:'Adobe Kaiti Std';-inkscape-font-specification:'Adobe Kaiti Std, Normal';text-align:start;writing-mode:lr-tb;text-anchor:start"
         id="path4445" />
      <path
         d="m 343.14426,692.57023 -0.08,-1.72 -0.24,-0.14 c -0.74,0.52 -1.5,0.76 -2.52,0.94 l 0,0.48 c 1.2,-0.02 1.32,0.12 1.32,1.42 l 0,5.4 c 0,1.36 -0.1,1.48 -1.32,1.48 l 0,0.56 4,0 0,-0.56 c -1.08,0 -1.12,-0.14 -1.12,-1.46 l 0,-5.38 c 0.94,-1.24 2,-2.06 2.98,-2.06 1.34,0 1.96,0.66 1.96,2.52 l 0,4.9 c 0,1.34 -0.08,1.48 -1.16,1.48 l 0,0.56 3.84,0 0,-0.56 c -1.02,0 -1.12,-0.18 -1.12,-1.44 l 0,-5 c 0,-2.02 -0.84,-3.28 -3.08,-3.28 -1.3,0 -2.46,0.7 -3.42,1.86 l -0.04,0 z"
         style="font-style:normal;font-variant:normal;font-weight:normal;font-stretch:normal;font-size:20px;line-height:125%;font-family:'Adobe Kaiti Std';-inkscape-font-specification:'Adobe Kaiti Std, Normal';text-align:start;writing-mode:lr-tb;text-anchor:start"
         id="path4447" />
      <path
         d="m 353.10676,691.67023 0,7.16 c 0,1.92 1.22,2.4 2.4,2.4 0.94,0 1.72,-0.28 2.4,-0.88 l -0.34,-0.5 c -0.56,0.4 -1.04,0.6 -1.64,0.6 -0.86,0 -1.28,-0.54 -1.28,-1.72 l 0,-7.06 2.72,0 0,-0.7 -2.72,0 0,-2.82 -0.54,0 c -0.4,2.08 -0.88,2.88 -2.46,3 l 0,0.52 1.46,0 z"
         style="font-style:normal;font-variant:normal;font-weight:normal;font-stretch:normal;font-size:20px;line-height:125%;font-family:'Adobe Kaiti Std';-inkscape-font-specification:'Adobe Kaiti Std, Normal';text-align:start;writing-mode:lr-tb;text-anchor:start"
         id="path4449" />
    </g>
    <path
       style="color:#000000;font-style:normal;font-variant:normal;font-weight:normal;font-stretch:normal;font-size:medium;line-height:normal;font-family:sans-serif;text-indent:0;text-align:start;text-decoration:none;text-decoration-line:none;text-decoration-style:solid;text-decoration-color:#000000;letter-spacing:normal;word-spacing:normal;text-transform:none;direction:ltr;block-progression:tb;writing-mode:lr-tb;baseline-shift:baseline;text-anchor:start;white-space:normal;clip-rule:nonzero;display:inline;overflow:visible;visibility:visible;opacity:1;isolation:auto;mix-blend-mode:normal;color-interpolation:sRGB;color-interpolation-filters:linearRGB;solid-color:#000000;solid-opacity:1;fill:#000000;fill-opacity:1;fill-rule:nonzero;stroke:none;stroke-width:1.17742693;stroke-linecap:butt;stroke-linejoin:miter;stroke-miterlimit:4;stroke-dasharray:none;stroke-dashoffset:0;stroke-opacity:1;color-rendering:auto;image-rendering:auto;shape-rendering:auto;text-rendering:auto;enable-background:accumulate"
       d="m 332.90039,713.36133 c -10.06085,0 -19.17207,1.76006 -25.82031,4.64062 -3.32412,1.44029 -6.03551,3.1609 -7.94141,5.11328 -1.90589,1.95239 -3.01172,4.16544 -3.01172,6.51368 0,2.34824 1.10583,4.56128 3.01172,6.51367 1.9059,1.95239 4.61729,3.67104 7.94141,5.11133 6.64824,2.88056 15.75946,4.64062 25.82031,4.64062 10.06085,0 19.17207,-1.76006 25.82031,-4.64062 3.32412,-1.44029 6.03551,-3.15894 7.94141,-5.11133 1.90589,-1.95239 3.01172,-4.16543 3.01172,-6.51367 0,-2.34824 -1.10583,-4.56129 -3.01172,-6.51368 -1.9059,-1.95238 -4.61729,-3.67299 -7.94141,-5.11328 -6.64824,-2.88056 -15.75946,-4.64062 -25.82031,-4.64062 z m 0,1.17773 c 9.923,0 18.90379,1.74927 25.35156,4.54297 3.22389,1.39685 5.81224,3.05651 7.56836,4.85547 1.75612,1.79896 2.67578,3.71032 2.67578,5.69141 0,1.98108 -0.91966,3.89244 -2.67578,5.6914 -1.75612,1.79896 -4.34447,3.45667 -7.56836,4.85352 -6.44777,2.7937 -15.42856,4.54297 -25.35156,4.54297 -9.923,0 -18.90379,-1.74927 -25.35156,-4.54297 -3.22389,-1.39685 -5.81224,-3.05456 -7.56836,-4.85352 -1.75612,-1.79896 -2.67578,-3.71032 -2.67578,-5.6914 0,-1.98109 0.91966,-3.89245 2.67578,-5.69141 1.75612,-1.79896 4.34447,-3.45862 7.56836,-4.85547 6.44777,-2.7937 15.42856,-4.54297 25.35156,-4.54297 z"
       id="ellipse4725-4"
       inkscape:connector-curvature="0" />
    <g
       style="font-style:normal;font-variant:normal;font-weight:normal;font-stretch:normal;font-size:25px;line-height:125%;font-family:'Adobe Fangsong Std';-inkscape-font-specification:'Adobe Fangsong Std, Normal';text-align:start;letter-spacing:0px;word-spacing:0px;writing-mode:lr-tb;text-anchor:start;fill:#000000;fill-opacity:1;stroke:none;stroke-width:1px;stroke-linecap:butt;stroke-linejoin:miter;stroke-opacity:1"
       id="text4727-1">
      <path
         d="m 317.20715,725.44234 c -0.22,-1.04 -0.38,-2.2 -0.52,-3.34 -1.62,-0.64 -2.52,-0.68 -3.36,-0.68 -3.72,0 -6.2,2.52 -6.2,7.56 0,2.7 0.54,4.66 1.72,6.08 0.98,1.12 2.38,1.76 4.12,1.76 2.16,0 3.88,-1.36 4.74,-4 l -0.8,-0.22 c -0.54,1.66 -1.62,3.32 -3.74,3.32 -1.12,0 -4.28,-0.66 -4.28,-7.02 0,-4.04 1.44,-6.7 4.48,-6.7 2.36,0 2.6,1.08 3.06,3.4 l 0.78,-0.16 z"
         style="font-style:normal;font-variant:normal;font-weight:normal;font-stretch:normal;font-size:20px;line-height:125%;font-family:'Adobe Kaiti Std';-inkscape-font-specification:'Adobe Kaiti Std, Normal';text-align:start;writing-mode:lr-tb;text-anchor:start"
         id="path4425" />
      <path
         d="m 319.1509,736.52234 4.44,0 0,-0.56 c -1.34,0 -1.42,-0.16 -1.42,-1.46 l 0,-13.28 -0.18,-0.14 c -0.92,0.52 -1.66,0.76 -2.84,0.94 l 0,0.48 c 1.42,0 1.48,0.12 1.48,1.32 l 0,10.66 c 0,1.32 -0.06,1.48 -1.48,1.48 l 0,0.56 z"
         style="font-style:normal;font-variant:normal;font-weight:normal;font-stretch:normal;font-size:20px;line-height:125%;font-family:'Adobe Kaiti Std';-inkscape-font-specification:'Adobe Kaiti Std, Normal';text-align:start;writing-mode:lr-tb;text-anchor:start"
         id="path4427" />
      <path
         d="m 326.83872,722.50234 c -0.54,0 -0.98,0.46 -0.98,1.26 0,0.8 0.44,1.26 0.98,1.26 0.56,0 1.02,-0.46 1.02,-1.26 0,-0.74 -0.4,-1.26 -1.02,-1.26 z m 0.72,3.74 c -0.94,0.52 -1.68,0.78 -2.84,0.94 l 0,0.48 c 1.4,0 1.48,0.02 1.48,1.36 l 0,5.46 c 0,1.32 -0.1,1.48 -1.48,1.48 l 0,0.56 4.42,0 0,-0.56 c -1.3,0 -1.38,-0.16 -1.38,-1.46 l 0,-8.14 -0.2,-0.12 z"
         style="font-style:normal;font-variant:normal;font-weight:normal;font-stretch:normal;font-size:20px;line-height:125%;font-family:'Adobe Kaiti Std';-inkscape-font-specification:'Adobe Kaiti Std, Normal';text-align:start;writing-mode:lr-tb;text-anchor:start"
         id="path4429" />
      <path
         d="m 335.04653,736.76234 c 1.14,0 2.72,-0.42 3.8,-2.38 l -0.58,-0.3 c -0.34,0.7 -1.3,1.94 -3.1,1.94 -0.98,0 -1.86,-0.5 -2.38,-1.32 -0.58,-0.94 -0.74,-2.08 -0.74,-3.4 l 6.78,0 c 0,-2.44 -1.02,-5.06 -4.1,-5.06 -2.9,0 -4.34,2.42 -4.34,5.02 0,3.8 1.82,5.5 4.56,5.5 l 0.1,0 z m -3,-6.16 c 0.14,-2.94 1.68,-3.66 2.68,-3.66 2.18,0 2.5,2.4 2.5,3.66 l -5.18,0 z"
         style="font-style:normal;font-variant:normal;font-weight:normal;font-stretch:normal;font-size:20px;line-height:125%;font-family:'Adobe Kaiti Std';-inkscape-font-specification:'Adobe Kaiti Std, Normal';text-align:start;writing-mode:lr-tb;text-anchor:start"
         id="path4431" />
      <path
         d="m 343.14465,728.10234 -0.08,-1.72 -0.24,-0.14 c -0.74,0.52 -1.5,0.76 -2.52,0.94 l 0,0.48 c 1.2,-0.02 1.32,0.12 1.32,1.42 l 0,5.4 c 0,1.36 -0.1,1.48 -1.32,1.48 l 0,0.56 4,0 0,-0.56 c -1.08,0 -1.12,-0.14 -1.12,-1.46 l 0,-5.38 c 0.94,-1.24 2,-2.06 2.98,-2.06 1.34,0 1.96,0.66 1.96,2.52 l 0,4.9 c 0,1.34 -0.08,1.48 -1.16,1.48 l 0,0.56 3.84,0 0,-0.56 c -1.02,0 -1.12,-0.18 -1.12,-1.44 l 0,-5 c 0,-2.02 -0.84,-3.28 -3.08,-3.28 -1.3,0 -2.46,0.7 -3.42,1.86 l -0.04,0 z"
         style="font-style:normal;font-variant:normal;font-weight:normal;font-stretch:normal;font-size:20px;line-height:125%;font-family:'Adobe Kaiti Std';-inkscape-font-specification:'Adobe Kaiti Std, Normal';text-align:start;writing-mode:lr-tb;text-anchor:start"
         id="path4433" />
      <path
         d="m 353.10715,727.20234 0,7.16 c 0,1.92 1.22,2.4 2.4,2.4 0.94,0 1.72,-0.28 2.4,-0.88 l -0.34,-0.5 c -0.56,0.4 -1.04,0.6 -1.64,0.6 -0.86,0 -1.28,-0.54 -1.28,-1.72 l 0,-7.06 2.72,0 0,-0.7 -2.72,0 0,-2.82 -0.54,0 c -0.4,2.08 -0.88,2.88 -2.46,3 l 0,0.52 1.46,0 z"
         style="font-style:normal;font-variant:normal;font-weight:normal;font-stretch:normal;font-size:20px;line-height:125%;font-family:'Adobe Kaiti Std';-inkscape-font-specification:'Adobe Kaiti Std, Normal';text-align:start;writing-mode:lr-tb;text-anchor:start"
         id="path4435" />
    </g>
    <path
       style="color:#000000;font-style:normal;font-variant:normal;font-weight:normal;font-stretch:normal;font-size:medium;line-height:normal;font-family:sans-serif;text-indent:0;text-align:start;text-decoration:none;text-decoration-line:none;text-decoration-style:solid;text-decoration-color:#000000;letter-spacing:normal;word-spacing:normal;text-transform:none;direction:ltr;block-progression:tb;writing-mode:lr-tb;baseline-shift:baseline;text-anchor:start;white-space:normal;clip-rule:nonzero;display:inline;overflow:visible;visibility:visible;opacity:1;isolation:auto;mix-blend-mode:normal;color-interpolation:sRGB;color-interpolation-filters:linearRGB;solid-color:#000000;solid-opacity:1;fill:#000000;fill-opacity:1;fill-rule:nonzero;stroke:none;stroke-width:1.17742693;stroke-linecap:butt;stroke-linejoin:miter;stroke-miterlimit:4;stroke-dasharray:none;stroke-dashoffset:0;stroke-opacity:1;color-rendering:auto;image-rendering:auto;shape-rendering:auto;text-rendering:auto;enable-background:accumulate"
       d="m 332.90039,748.83008 c -10.06085,0 -19.17207,1.76006 -25.82031,4.64062 -3.32412,1.44029 -6.03551,3.15894 -7.94141,5.11133 -1.90589,1.95239 -3.01172,4.16543 -3.01172,6.51367 0,2.34824 1.10583,4.56129 3.01172,6.51368 1.9059,1.95238 4.61729,3.67299 7.94141,5.11328 6.64824,2.88056 15.75946,4.64062 25.82031,4.64062 10.06085,0 19.17207,-1.76006 25.82031,-4.64062 3.32412,-1.44029 6.03551,-3.1609 7.94141,-5.11328 1.90589,-1.95239 3.00977,-4.16544 3.00977,-6.51368 0,-2.34824 -1.10388,-4.56128 -3.00977,-6.51367 -1.9059,-1.95239 -4.61729,-3.67104 -7.94141,-5.11133 -6.64824,-2.88056 -15.75946,-4.64062 -25.82031,-4.64062 z m 0,1.17773 c 9.923,0 18.90379,1.74927 25.35156,4.54297 3.22389,1.39685 5.81029,3.05456 7.56641,4.85352 1.75612,1.79896 2.67773,3.71032 2.67773,5.6914 0,1.98109 -0.92161,3.89245 -2.67773,5.69141 -1.75612,1.79896 -4.34252,3.45862 -7.56641,4.85547 -6.44777,2.7937 -15.42856,4.54297 -25.35156,4.54297 -9.92299,0 -18.90379,-1.74927 -25.35156,-4.54297 -3.22389,-1.39685 -5.81224,-3.05651 -7.56836,-4.85547 -1.75612,-1.79896 -2.67578,-3.71032 -2.67578,-5.69141 0,-1.98108 0.91966,-3.89244 2.67578,-5.6914 1.75612,-1.79896 4.34447,-3.45667 7.56836,-4.85352 6.44777,-2.7937 15.42857,-4.54297 25.35156,-4.54297 z"
       id="ellipse4745-6"
       inkscape:connector-curvature="0" />
    <g
       style="font-style:normal;font-variant:normal;font-weight:normal;font-stretch:normal;font-size:25px;line-height:125%;font-family:'Adobe Fangsong Std';-inkscape-font-specification:'Adobe Fangsong Std, Normal';text-align:start;letter-spacing:0px;word-spacing:0px;writing-mode:lr-tb;text-anchor:start;fill:#000000;fill-opacity:1;stroke:none;stroke-width:1px;stroke-linecap:butt;stroke-linejoin:miter;stroke-opacity:1"
       id="text4747-3">
      <path
         d="m 317.20676,760.9106 c -0.22,-1.04 -0.38,-2.2 -0.52,-3.34 -1.62,-0.64 -2.52,-0.68 -3.36,-0.68 -3.72,0 -6.2,2.52 -6.2,7.56 0,2.7 0.54,4.66 1.72,6.08 0.98,1.12 2.38,1.76 4.12,1.76 2.16,0 3.88,-1.36 4.74,-4 l -0.8,-0.22 c -0.54,1.66 -1.62,3.32 -3.74,3.32 -1.12,0 -4.28,-0.66 -4.28,-7.02 0,-4.04 1.44,-6.7 4.48,-6.7 2.36,0 2.6,1.08 3.06,3.4 l 0.78,-0.16 z"
         style="font-style:normal;font-variant:normal;font-weight:normal;font-stretch:normal;font-size:20px;line-height:125%;font-family:'Adobe Kaiti Std';-inkscape-font-specification:'Adobe Kaiti Std, Normal';text-align:start;writing-mode:lr-tb;text-anchor:start"
         id="path4411" />
      <path
         d="m 319.15051,771.9906 4.44,0 0,-0.56 c -1.34,0 -1.42,-0.16 -1.42,-1.46 l 0,-13.28 -0.18,-0.14 c -0.92,0.52 -1.66,0.76 -2.84,0.94 l 0,0.48 c 1.42,0 1.48,0.12 1.48,1.32 l 0,10.66 c 0,1.32 -0.06,1.48 -1.48,1.48 l 0,0.56 z"
         style="font-style:normal;font-variant:normal;font-weight:normal;font-stretch:normal;font-size:20px;line-height:125%;font-family:'Adobe Kaiti Std';-inkscape-font-specification:'Adobe Kaiti Std, Normal';text-align:start;writing-mode:lr-tb;text-anchor:start"
         id="path4413" />
      <path
         d="m 326.83832,757.9706 c -0.54,0 -0.98,0.46 -0.98,1.26 0,0.8 0.44,1.26 0.98,1.26 0.56,0 1.02,-0.46 1.02,-1.26 0,-0.74 -0.4,-1.26 -1.02,-1.26 z m 0.72,3.74 c -0.94,0.52 -1.68,0.78 -2.84,0.94 l 0,0.48 c 1.4,0 1.48,0.02 1.48,1.36 l 0,5.46 c 0,1.32 -0.1,1.48 -1.48,1.48 l 0,0.56 4.42,0 0,-0.56 c -1.3,0 -1.38,-0.16 -1.38,-1.46 l 0,-8.14 -0.2,-0.12 z"
         style="font-style:normal;font-variant:normal;font-weight:normal;font-stretch:normal;font-size:20px;line-height:125%;font-family:'Adobe Kaiti Std';-inkscape-font-specification:'Adobe Kaiti Std, Normal';text-align:start;writing-mode:lr-tb;text-anchor:start"
         id="path4415" />
      <path
         d="m 335.04613,772.2306 c 1.14,0 2.72,-0.42 3.8,-2.38 l -0.58,-0.3 c -0.34,0.7 -1.3,1.94 -3.1,1.94 -0.98,0 -1.86,-0.5 -2.38,-1.32 -0.58,-0.94 -0.74,-2.08 -0.74,-3.4 l 6.78,0 c 0,-2.44 -1.02,-5.06 -4.1,-5.06 -2.9,0 -4.34,2.42 -4.34,5.02 0,3.8 1.82,5.5 4.56,5.5 l 0.1,0 z m -3,-6.16 c 0.14,-2.94 1.68,-3.66 2.68,-3.66 2.18,0 2.5,2.4 2.5,3.66 l -5.18,0 z"
         style="font-style:normal;font-variant:normal;font-weight:normal;font-stretch:normal;font-size:20px;line-height:125%;font-family:'Adobe Kaiti Std';-inkscape-font-specification:'Adobe Kaiti Std, Normal';text-align:start;writing-mode:lr-tb;text-anchor:start"
         id="path4417" />
      <path
         d="m 343.14426,763.5706 -0.08,-1.72 -0.24,-0.14 c -0.74,0.52 -1.5,0.76 -2.52,0.94 l 0,0.48 c 1.2,-0.02 1.32,0.12 1.32,1.42 l 0,5.4 c 0,1.36 -0.1,1.48 -1.32,1.48 l 0,0.56 4,0 0,-0.56 c -1.08,0 -1.12,-0.14 -1.12,-1.46 l 0,-5.38 c 0.94,-1.24 2,-2.06 2.98,-2.06 1.34,0 1.96,0.66 1.96,2.52 l 0,4.9 c 0,1.34 -0.08,1.48 -1.16,1.48 l 0,0.56 3.84,0 0,-0.56 c -1.02,0 -1.12,-0.18 -1.12,-1.44 l 0,-5 c 0,-2.02 -0.84,-3.28 -3.08,-3.28 -1.3,0 -2.46,0.7 -3.42,1.86 l -0.04,0 z"
         style="font-style:normal;font-variant:normal;font-weight:normal;font-stretch:normal;font-size:20px;line-height:125%;font-family:'Adobe Kaiti Std';-inkscape-font-specification:'Adobe Kaiti Std, Normal';text-align:start;writing-mode:lr-tb;text-anchor:start"
         id="path4419" />
      <path
         d="m 353.10676,762.6706 0,7.16 c 0,1.92 1.22,2.4 2.4,2.4 0.94,0 1.72,-0.28 2.4,-0.88 l -0.34,-0.5 c -0.56,0.4 -1.04,0.6 -1.64,0.6 -0.86,0 -1.28,-0.54 -1.28,-1.72 l 0,-7.06 2.72,0 0,-0.7 -2.72,0 0,-2.82 -0.54,0 c -0.4,2.08 -0.88,2.88 -2.46,3 l 0,0.52 1.46,0 z"
         style="font-style:normal;font-variant:normal;font-weight:normal;font-stretch:normal;font-size:20px;line-height:125%;font-family:'Adobe Kaiti Std';-inkscape-font-specification:'Adobe Kaiti Std, Normal';text-align:start;writing-mode:lr-tb;text-anchor:start"
         id="path4421" />
    </g>
    <path
       style="color:#000000;font-style:normal;font-variant:normal;font-weight:normal;font-stretch:normal;font-size:medium;line-height:normal;font-family:sans-serif;text-indent:0;text-align:start;text-decoration:none;text-decoration-line:none;text-decoration-style:solid;text-decoration-color:#000000;letter-spacing:normal;word-spacing:normal;text-transform:none;direction:ltr;block-progression:tb;writing-mode:lr-tb;baseline-shift:baseline;text-anchor:start;white-space:normal;clip-rule:nonzero;display:inline;overflow:visible;visibility:visible;opacity:1;isolation:auto;mix-blend-mode:normal;color-interpolation:sRGB;color-interpolation-filters:linearRGB;solid-color:#000000;solid-opacity:1;fill:#000000;fill-opacity:1;fill-rule:nonzero;stroke:none;stroke-width:1.17742693;stroke-linecap:butt;stroke-linejoin:miter;stroke-miterlimit:4;stroke-dasharray:none;stroke-dashoffset:0;stroke-opacity:1;color-rendering:auto;image-rendering:auto;shape-rendering:auto;text-rendering:auto;enable-background:accumulate"
       d="m 332.90039,784.36133 c -10.06085,0 -19.17207,1.76006 -25.82031,4.64062 -3.32412,1.44029 -6.03551,3.1609 -7.94141,5.11328 -1.90589,1.95239 -3.01172,4.16544 -3.01172,6.51368 0,2.34824 1.10583,4.56128 3.01172,6.51367 1.9059,1.95239 4.61729,3.67104 7.94141,5.11133 6.64824,2.88056 15.75946,4.64062 25.82031,4.64062 10.06085,0 19.17207,-1.76006 25.82031,-4.64062 3.32412,-1.44029 6.03551,-3.15894 7.94141,-5.11133 1.90589,-1.95239 3.01172,-4.16543 3.01172,-6.51367 0,-2.34824 -1.10583,-4.56129 -3.01172,-6.51368 -1.9059,-1.95238 -4.61729,-3.67299 -7.94141,-5.11328 -6.64824,-2.88056 -15.75946,-4.64062 -25.82031,-4.64062 z m 0,1.17773 c 9.923,0 18.90379,1.74927 25.35156,4.54297 3.22389,1.39685 5.81224,3.05651 7.56836,4.85547 1.75612,1.79896 2.67578,3.71032 2.67578,5.69141 0,1.98108 -0.91966,3.89244 -2.67578,5.6914 -1.75612,1.79896 -4.34447,3.45667 -7.56836,4.85352 -6.44777,2.7937 -15.42856,4.54297 -25.35156,4.54297 -9.923,0 -18.90379,-1.74927 -25.35156,-4.54297 -3.22389,-1.39685 -5.81224,-3.05456 -7.56836,-4.85352 -1.75612,-1.79896 -2.67578,-3.71032 -2.67578,-5.6914 0,-1.98109 0.91966,-3.89245 2.67578,-5.69141 1.75612,-1.79896 4.34447,-3.45862 7.56836,-4.85547 6.44777,-2.7937 15.42856,-4.54297 25.35156,-4.54297 z"
       id="ellipse4751-6"
       inkscape:connector-curvature="0" />
    <g
       style="font-style:normal;font-variant:normal;font-weight:normal;font-stretch:normal;font-size:25px;line-height:125%;font-family:'Adobe Fangsong Std';-inkscape-font-specification:'Adobe Fangsong Std, Normal';text-align:start;letter-spacing:0px;word-spacing:0px;writing-mode:lr-tb;text-anchor:start;fill:#000000;fill-opacity:1;stroke:none;stroke-width:1px;stroke-linecap:butt;stroke-linejoin:miter;stroke-opacity:1"
       id="text4753-9">
      <path
         d="m 317.20715,796.44271 c -0.22,-1.04 -0.38,-2.2 -0.52,-3.34 -1.62,-0.64 -2.52,-0.68 -3.36,-0.68 -3.72,0 -6.2,2.52 -6.2,7.56 0,2.7 0.54,4.66 1.72,6.08 0.98,1.12 2.38,1.76 4.12,1.76 2.16,0 3.88,-1.36 4.74,-4 l -0.8,-0.22 c -0.54,1.66 -1.62,3.32 -3.74,3.32 -1.12,0 -4.28,-0.66 -4.28,-7.02 0,-4.04 1.44,-6.7 4.48,-6.7 2.36,0 2.6,1.08 3.06,3.4 l 0.78,-0.16 z"
         style="font-style:normal;font-variant:normal;font-weight:normal;font-stretch:normal;font-size:20px;line-height:125%;font-family:'Adobe Kaiti Std';-inkscape-font-specification:'Adobe Kaiti Std, Normal';text-align:start;writing-mode:lr-tb;text-anchor:start"
         id="path4397" />
      <path
         d="m 319.1509,807.52271 4.44,0 0,-0.56 c -1.34,0 -1.42,-0.16 -1.42,-1.46 l 0,-13.28 -0.18,-0.14 c -0.92,0.52 -1.66,0.76 -2.84,0.94 l 0,0.48 c 1.42,0 1.48,0.12 1.48,1.32 l 0,10.66 c 0,1.32 -0.06,1.48 -1.48,1.48 l 0,0.56 z"
         style="font-style:normal;font-variant:normal;font-weight:normal;font-stretch:normal;font-size:20px;line-height:125%;font-family:'Adobe Kaiti Std';-inkscape-font-specification:'Adobe Kaiti Std, Normal';text-align:start;writing-mode:lr-tb;text-anchor:start"
         id="path4399" />
      <path
         d="m 326.83872,793.50271 c -0.54,0 -0.98,0.46 -0.98,1.26 0,0.8 0.44,1.26 0.98,1.26 0.56,0 1.02,-0.46 1.02,-1.26 0,-0.74 -0.4,-1.26 -1.02,-1.26 z m 0.72,3.74 c -0.94,0.52 -1.68,0.78 -2.84,0.94 l 0,0.48 c 1.4,0 1.48,0.02 1.48,1.36 l 0,5.46 c 0,1.32 -0.1,1.48 -1.48,1.48 l 0,0.56 4.42,0 0,-0.56 c -1.3,0 -1.38,-0.16 -1.38,-1.46 l 0,-8.14 -0.2,-0.12 z"
         style="font-style:normal;font-variant:normal;font-weight:normal;font-stretch:normal;font-size:20px;line-height:125%;font-family:'Adobe Kaiti Std';-inkscape-font-specification:'Adobe Kaiti Std, Normal';text-align:start;writing-mode:lr-tb;text-anchor:start"
         id="path4401" />
      <path
         d="m 335.04653,807.76271 c 1.14,0 2.72,-0.42 3.8,-2.38 l -0.58,-0.3 c -0.34,0.7 -1.3,1.94 -3.1,1.94 -0.98,0 -1.86,-0.5 -2.38,-1.32 -0.58,-0.94 -0.74,-2.08 -0.74,-3.4 l 6.78,0 c 0,-2.44 -1.02,-5.06 -4.1,-5.06 -2.9,0 -4.34,2.42 -4.34,5.02 0,3.8 1.82,5.5 4.56,5.5 l 0.1,0 z m -3,-6.16 c 0.14,-2.94 1.68,-3.66 2.68,-3.66 2.18,0 2.5,2.4 2.5,3.66 l -5.18,0 z"
         style="font-style:normal;font-variant:normal;font-weight:normal;font-stretch:normal;font-size:20px;line-height:125%;font-family:'Adobe Kaiti Std';-inkscape-font-specification:'Adobe Kaiti Std, Normal';text-align:start;writing-mode:lr-tb;text-anchor:start"
         id="path4403" />
      <path
         d="m 343.14465,799.10271 -0.08,-1.72 -0.24,-0.14 c -0.74,0.52 -1.5,0.76 -2.52,0.94 l 0,0.48 c 1.2,-0.02 1.32,0.12 1.32,1.42 l 0,5.4 c 0,1.36 -0.1,1.48 -1.32,1.48 l 0,0.56 4,0 0,-0.56 c -1.08,0 -1.12,-0.14 -1.12,-1.46 l 0,-5.38 c 0.94,-1.24 2,-2.06 2.98,-2.06 1.34,0 1.96,0.66 1.96,2.52 l 0,4.9 c 0,1.34 -0.08,1.48 -1.16,1.48 l 0,0.56 3.84,0 0,-0.56 c -1.02,0 -1.12,-0.18 -1.12,-1.44 l 0,-5 c 0,-2.02 -0.84,-3.28 -3.08,-3.28 -1.3,0 -2.46,0.7 -3.42,1.86 l -0.04,0 z"
         style="font-style:normal;font-variant:normal;font-weight:normal;font-stretch:normal;font-size:20px;line-height:125%;font-family:'Adobe Kaiti Std';-inkscape-font-specification:'Adobe Kaiti Std, Normal';text-align:start;writing-mode:lr-tb;text-anchor:start"
         id="path4405" />
      <path
         d="m 353.10715,798.20271 0,7.16 c 0,1.92 1.22,2.4 2.4,2.4 0.94,0 1.72,-0.28 2.4,-0.88 l -0.34,-0.5 c -0.56,0.4 -1.04,0.6 -1.64,0.6 -0.86,0 -1.28,-0.54 -1.28,-1.72 l 0,-7.06 2.72,0 0,-0.7 -2.72,0 0,-2.82 -0.54,0 c -0.4,2.08 -0.88,2.88 -2.46,3 l 0,0.52 1.46,0 z"
         style="font-style:normal;font-variant:normal;font-weight:normal;font-stretch:normal;font-size:20px;line-height:125%;font-family:'Adobe Kaiti Std';-inkscape-font-specification:'Adobe Kaiti Std, Normal';text-align:start;writing-mode:lr-tb;text-anchor:start"
         id="path4407" />
    </g>
    <path
       style="color:#000000;font-style:normal;font-variant:normal;font-weight:normal;font-stretch:normal;font-size:medium;line-height:normal;font-family:sans-serif;text-indent:0;text-align:start;text-decoration:none;text-decoration-line:none;text-decoration-style:solid;text-decoration-color:#000000;letter-spacing:normal;word-spacing:normal;text-transform:none;direction:ltr;block-progression:tb;writing-mode:lr-tb;baseline-shift:baseline;text-anchor:start;white-space:normal;clip-rule:nonzero;display:inline;overflow:visible;visibility:visible;opacity:1;isolation:auto;mix-blend-mode:normal;color-interpolation:sRGB;color-interpolation-filters:linearRGB;solid-color:#000000;solid-opacity:1;fill:#000000;fill-opacity:1;fill-rule:nonzero;stroke:none;stroke-width:1.17742693;stroke-linecap:butt;stroke-linejoin:miter;stroke-miterlimit:4;stroke-dasharray:none;stroke-dashoffset:0;stroke-opacity:1;color-rendering:auto;image-rendering:auto;shape-rendering:auto;text-rendering:auto;enable-background:accumulate"
       d="m 332.90039,819.83008 c -10.06085,0 -19.17207,1.76006 -25.82031,4.64062 -3.32412,1.44029 -6.03551,3.15894 -7.94141,5.11133 -1.90589,1.95239 -3.01172,4.16543 -3.01172,6.51367 0,2.34824 1.10583,4.56129 3.01172,6.51368 1.9059,1.95238 4.61729,3.67299 7.94141,5.11328 6.64824,2.88056 15.75946,4.64062 25.82031,4.64062 10.06085,0 19.17207,-1.76006 25.82031,-4.64062 3.32412,-1.44029 6.03551,-3.1609 7.94141,-5.11328 1.90589,-1.95239 3.00977,-4.16544 3.00977,-6.51368 0,-2.34824 -1.10388,-4.56128 -3.00977,-6.51367 -1.9059,-1.95239 -4.61729,-3.67104 -7.94141,-5.11133 -6.64824,-2.88056 -15.75946,-4.64062 -25.82031,-4.64062 z m 0,1.17578 c 9.923,0 18.90379,1.75122 25.35156,4.54492 3.22389,1.39685 5.81029,3.05456 7.56641,4.85352 1.75612,1.79896 2.67773,3.71032 2.67773,5.6914 0,1.98109 -0.92161,3.89245 -2.67773,5.69141 -1.75612,1.79896 -4.34252,3.45862 -7.56641,4.85547 -6.44777,2.7937 -15.42856,4.54297 -25.35156,4.54297 -9.92299,0 -18.90379,-1.74927 -25.35156,-4.54297 -3.22389,-1.39685 -5.81224,-3.05651 -7.56836,-4.85547 -1.75612,-1.79896 -2.67578,-3.71032 -2.67578,-5.69141 0,-1.98108 0.91966,-3.89244 2.67578,-5.6914 1.75612,-1.79896 4.34447,-3.45667 7.56836,-4.85352 6.44777,-2.7937 15.42857,-4.54492 25.35156,-4.54492 z"
       id="ellipse4757-7"
       inkscape:connector-curvature="0" />
    <g
       style="font-style:normal;font-variant:normal;font-weight:normal;font-stretch:normal;font-size:25px;line-height:125%;font-family:'Adobe Fangsong Std';-inkscape-font-specification:'Adobe Fangsong Std, Normal';text-align:start;letter-spacing:0px;word-spacing:0px;writing-mode:lr-tb;text-anchor:start;fill:#000000;fill-opacity:1;stroke:none;stroke-width:1px;stroke-linecap:butt;stroke-linejoin:miter;stroke-opacity:1"
       id="text4759-0">
      <path
         d="m 317.20676,831.91023 c -0.22,-1.04 -0.38,-2.2 -0.52,-3.34 -1.62,-0.64 -2.52,-0.68 -3.36,-0.68 -3.72,0 -6.2,2.52 -6.2,7.56 0,2.7 0.54,4.66 1.72,6.08 0.98,1.12 2.38,1.76 4.12,1.76 2.16,0 3.88,-1.36 4.74,-4 l -0.8,-0.22 c -0.54,1.66 -1.62,3.32 -3.74,3.32 -1.12,0 -4.28,-0.66 -4.28,-7.02 0,-4.04 1.44,-6.7 4.48,-6.7 2.36,0 2.6,1.08 3.06,3.4 l 0.78,-0.16 z"
         style="font-style:normal;font-variant:normal;font-weight:normal;font-stretch:normal;font-size:20px;line-height:125%;font-family:'Adobe Kaiti Std';-inkscape-font-specification:'Adobe Kaiti Std, Normal';text-align:start;writing-mode:lr-tb;text-anchor:start"
         id="path4383" />
      <path
         d="m 319.15051,842.99023 4.44,0 0,-0.56 c -1.34,0 -1.42,-0.16 -1.42,-1.46 l 0,-13.28 -0.18,-0.14 c -0.92,0.52 -1.66,0.76 -2.84,0.94 l 0,0.48 c 1.42,0 1.48,0.12 1.48,1.32 l 0,10.66 c 0,1.32 -0.06,1.48 -1.48,1.48 l 0,0.56 z"
         style="font-style:normal;font-variant:normal;font-weight:normal;font-stretch:normal;font-size:20px;line-height:125%;font-family:'Adobe Kaiti Std';-inkscape-font-specification:'Adobe Kaiti Std, Normal';text-align:start;writing-mode:lr-tb;text-anchor:start"
         id="path4385" />
      <path
         d="m 326.83832,828.97023 c -0.54,0 -0.98,0.46 -0.98,1.26 0,0.8 0.44,1.26 0.98,1.26 0.56,0 1.02,-0.46 1.02,-1.26 0,-0.74 -0.4,-1.26 -1.02,-1.26 z m 0.72,3.74 c -0.94,0.52 -1.68,0.78 -2.84,0.94 l 0,0.48 c 1.4,0 1.48,0.02 1.48,1.36 l 0,5.46 c 0,1.32 -0.1,1.48 -1.48,1.48 l 0,0.56 4.42,0 0,-0.56 c -1.3,0 -1.38,-0.16 -1.38,-1.46 l 0,-8.14 -0.2,-0.12 z"
         style="font-style:normal;font-variant:normal;font-weight:normal;font-stretch:normal;font-size:20px;line-height:125%;font-family:'Adobe Kaiti Std';-inkscape-font-specification:'Adobe Kaiti Std, Normal';text-align:start;writing-mode:lr-tb;text-anchor:start"
         id="path4387" />
      <path
         d="m 335.04613,843.23023 c 1.14,0 2.72,-0.42 3.8,-2.38 l -0.58,-0.3 c -0.34,0.7 -1.3,1.94 -3.1,1.94 -0.98,0 -1.86,-0.5 -2.38,-1.32 -0.58,-0.94 -0.74,-2.08 -0.74,-3.4 l 6.78,0 c 0,-2.44 -1.02,-5.06 -4.1,-5.06 -2.9,0 -4.34,2.42 -4.34,5.02 0,3.8 1.82,5.5 4.56,5.5 l 0.1,0 z m -3,-6.16 c 0.14,-2.94 1.68,-3.66 2.68,-3.66 2.18,0 2.5,2.4 2.5,3.66 l -5.18,0 z"
         style="font-style:normal;font-variant:normal;font-weight:normal;font-stretch:normal;font-size:20px;line-height:125%;font-family:'Adobe Kaiti Std';-inkscape-font-specification:'Adobe Kaiti Std, Normal';text-align:start;writing-mode:lr-tb;text-anchor:start"
         id="path4389" />
      <path
         d="m 343.14426,834.57023 -0.08,-1.72 -0.24,-0.14 c -0.74,0.52 -1.5,0.76 -2.52,0.94 l 0,0.48 c 1.2,-0.02 1.32,0.12 1.32,1.42 l 0,5.4 c 0,1.36 -0.1,1.48 -1.32,1.48 l 0,0.56 4,0 0,-0.56 c -1.08,0 -1.12,-0.14 -1.12,-1.46 l 0,-5.38 c 0.94,-1.24 2,-2.06 2.98,-2.06 1.34,0 1.96,0.66 1.96,2.52 l 0,4.9 c 0,1.34 -0.08,1.48 -1.16,1.48 l 0,0.56 3.84,0 0,-0.56 c -1.02,0 -1.12,-0.18 -1.12,-1.44 l 0,-5 c 0,-2.02 -0.84,-3.28 -3.08,-3.28 -1.3,0 -2.46,0.7 -3.42,1.86 l -0.04,0 z"
         style="font-style:normal;font-variant:normal;font-weight:normal;font-stretch:normal;font-size:20px;line-height:125%;font-family:'Adobe Kaiti Std';-inkscape-font-specification:'Adobe Kaiti Std, Normal';text-align:start;writing-mode:lr-tb;text-anchor:start"
         id="path4391" />
      <path
         d="m 353.10676,833.67023 0,7.16 c 0,1.92 1.22,2.4 2.4,2.4 0.94,0 1.72,-0.28 2.4,-0.88 l -0.34,-0.5 c -0.56,0.4 -1.04,0.6 -1.64,0.6 -0.86,0 -1.28,-0.54 -1.28,-1.72 l 0,-7.06 2.72,0 0,-0.7 -2.72,0 0,-2.82 -0.54,0 c -0.4,2.08 -0.88,2.88 -2.46,3 l 0,0.52 1.46,0 z"
         style="font-style:normal;font-variant:normal;font-weight:normal;font-stretch:normal;font-size:20px;line-height:125%;font-family:'Adobe Kaiti Std';-inkscape-font-specification:'Adobe Kaiti Std, Normal';text-align:start;writing-mode:lr-tb;text-anchor:start"
         id="path4393" />
    </g>
    <path
       style="color:#000000;font-style:normal;font-variant:normal;font-weight:normal;font-stretch:normal;font-size:medium;line-height:normal;font-family:sans-serif;text-indent:0;text-align:start;text-decoration:none;text-decoration-line:none;text-decoration-style:solid;text-decoration-color:#000000;letter-spacing:normal;word-spacing:normal;text-transform:none;direction:ltr;block-progression:tb;writing-mode:lr-tb;baseline-shift:baseline;text-anchor:start;white-space:normal;clip-rule:nonzero;display:inline;overflow:visible;visibility:visible;opacity:1;isolation:auto;mix-blend-mode:normal;color-interpolation:sRGB;color-interpolation-filters:linearRGB;solid-color:#000000;solid-opacity:1;fill:#000000;fill-opacity:1;fill-rule:evenodd;stroke:none;stroke-width:1px;stroke-linecap:butt;stroke-linejoin:miter;stroke-miterlimit:4;stroke-dasharray:none;stroke-dashoffset:0;stroke-opacity:1;color-rendering:auto;image-rendering:auto;shape-rendering:auto;text-rendering:auto;enable-background:accumulate"
       d="m 296.69141,658.21484 -61.67383,35.01758 0.49414,0.86914 61.67383,-35.01758 -0.49414,-0.86914 z"
       id="path4769-5"
       inkscape:connector-curvature="0" />
    <path
       style="color:#000000;font-style:normal;font-variant:normal;font-weight:normal;font-stretch:normal;font-size:medium;line-height:normal;font-family:sans-serif;text-indent:0;text-align:start;text-decoration:none;text-decoration-line:none;text-decoration-style:solid;text-decoration-color:#000000;letter-spacing:normal;word-spacing:normal;text-transform:none;direction:ltr;block-progression:tb;writing-mode:lr-tb;baseline-shift:baseline;text-anchor:start;white-space:normal;clip-rule:nonzero;display:inline;overflow:visible;visibility:visible;opacity:1;isolation:auto;mix-blend-mode:normal;color-interpolation:sRGB;color-interpolation-filters:linearRGB;solid-color:#000000;solid-opacity:1;fill:#000000;fill-opacity:1;fill-rule:evenodd;stroke:none;stroke-width:1px;stroke-linecap:butt;stroke-linejoin:miter;stroke-miterlimit:4;stroke-dasharray:none;stroke-dashoffset:0;stroke-opacity:1;color-rendering:auto;image-rendering:auto;shape-rendering:auto;text-rendering:auto;enable-background:accumulate"
       d="m 296.3125,694.36328 -61.20703,12.03906 0.19141,0.98243 61.20703,-12.04102 -0.19141,-0.98047 z"
       id="path4801-7"
       inkscape:connector-curvature="0" />
    <path
       style="color:#000000;font-style:normal;font-variant:normal;font-weight:normal;font-stretch:normal;font-size:medium;line-height:normal;font-family:sans-serif;text-indent:0;text-align:start;text-decoration:none;text-decoration-line:none;text-decoration-style:solid;text-decoration-color:#000000;letter-spacing:normal;word-spacing:normal;text-transform:none;direction:ltr;block-progression:tb;writing-mode:lr-tb;baseline-shift:baseline;text-anchor:start;white-space:normal;clip-rule:nonzero;display:inline;overflow:visible;visibility:visible;opacity:1;isolation:auto;mix-blend-mode:normal;color-interpolation:sRGB;color-interpolation-filters:linearRGB;solid-color:#000000;solid-opacity:1;fill:#000000;fill-opacity:1;fill-rule:evenodd;stroke:none;stroke-width:1px;stroke-linecap:butt;stroke-linejoin:miter;stroke-miterlimit:4;stroke-dasharray:none;stroke-dashoffset:0;stroke-opacity:1;color-rendering:auto;image-rendering:auto;shape-rendering:auto;text-rendering:auto;enable-background:accumulate"
       d="m 296.50195,728.22461 -61.70117,3.16992 0.0508,0.99805 61.70117,-3.16992 -0.0508,-0.99805 z"
       id="path4901-2"
       inkscape:connector-curvature="0" />
    <path
       style="color:#000000;font-style:normal;font-variant:normal;font-weight:normal;font-stretch:normal;font-size:medium;line-height:normal;font-family:sans-serif;text-indent:0;text-align:start;text-decoration:none;text-decoration-line:none;text-decoration-style:solid;text-decoration-color:#000000;letter-spacing:normal;word-spacing:normal;text-transform:none;direction:ltr;block-progression:tb;writing-mode:lr-tb;baseline-shift:baseline;text-anchor:start;white-space:normal;clip-rule:nonzero;display:inline;overflow:visible;visibility:visible;opacity:1;isolation:auto;mix-blend-mode:normal;color-interpolation:sRGB;color-interpolation-filters:linearRGB;solid-color:#000000;solid-opacity:1;fill:#000000;fill-opacity:1;fill-rule:evenodd;stroke:none;stroke-width:1px;stroke-linecap:butt;stroke-linejoin:miter;stroke-miterlimit:4;stroke-dasharray:none;stroke-dashoffset:0;stroke-opacity:1;color-rendering:auto;image-rendering:auto;shape-rendering:auto;text-rendering:auto;enable-background:accumulate"
       d="m 235.20508,747.28516 -0.25781,0.96679 61.49609,16.3086 0.25586,-0.9668 -61.49414,-16.30859 z"
       id="path5025-0"
       inkscape:connector-curvature="0" />
    <path
       style="color:#000000;font-style:normal;font-variant:normal;font-weight:normal;font-stretch:normal;font-size:medium;line-height:normal;font-family:sans-serif;text-indent:0;text-align:start;text-decoration:none;text-decoration-line:none;text-decoration-style:solid;text-decoration-color:#000000;letter-spacing:normal;word-spacing:normal;text-transform:none;direction:ltr;block-progression:tb;writing-mode:lr-tb;baseline-shift:baseline;text-anchor:start;white-space:normal;clip-rule:nonzero;display:inline;overflow:visible;visibility:visible;opacity:1;isolation:auto;mix-blend-mode:normal;color-interpolation:sRGB;color-interpolation-filters:linearRGB;solid-color:#000000;solid-opacity:1;fill:#000000;fill-opacity:1;fill-rule:evenodd;stroke:none;stroke-width:1px;stroke-linecap:butt;stroke-linejoin:miter;stroke-miterlimit:4;stroke-dasharray:none;stroke-dashoffset:0;stroke-opacity:1;color-rendering:auto;image-rendering:auto;shape-rendering:auto;text-rendering:auto;enable-background:accumulate"
       d="m 235.36914,771.68945 -0.34766,0.9375 63.17579,23.50782 0.34961,-0.9375 -63.17774,-23.50782 z"
       id="path5173-1"
       inkscape:connector-curvature="0" />
    <path
       style="color:#000000;font-style:normal;font-variant:normal;font-weight:normal;font-stretch:normal;font-size:medium;line-height:normal;font-family:sans-serif;text-indent:0;text-align:start;text-decoration:none;text-decoration-line:none;text-decoration-style:solid;text-decoration-color:#000000;letter-spacing:normal;word-spacing:normal;text-transform:none;direction:ltr;block-progression:tb;writing-mode:lr-tb;baseline-shift:baseline;text-anchor:start;white-space:normal;clip-rule:nonzero;display:inline;overflow:visible;visibility:visible;opacity:1;isolation:auto;mix-blend-mode:normal;color-interpolation:sRGB;color-interpolation-filters:linearRGB;solid-color:#000000;solid-opacity:1;fill:#000000;fill-opacity:1;fill-rule:evenodd;stroke:none;stroke-width:1px;stroke-linecap:butt;stroke-linejoin:miter;stroke-miterlimit:4;stroke-dasharray:none;stroke-dashoffset:0;stroke-opacity:1;color-rendering:auto;image-rendering:auto;shape-rendering:auto;text-rendering:auto;enable-background:accumulate"
       d="m 234.97461,790.59961 -0.54883,0.83594 62.625,41.125 0.54883,-0.83594 -62.625,-41.125 z"
       id="path5345-2"
       inkscape:connector-curvature="0" />
    <g
       style="font-style:normal;font-variant:normal;font-weight:normal;font-stretch:normal;font-size:12.5px;line-height:125%;font-family:'Adobe Hebrew';-inkscape-font-specification:'Adobe Hebrew, Normal';text-align:start;letter-spacing:0px;word-spacing:0px;writing-mode:lr-tb;text-anchor:start;fill:#000000;fill-opacity:1;stroke:none;stroke-width:1px;stroke-linecap:butt;stroke-linejoin:miter;stroke-opacity:1"
       id="text4221-73-1">
      <path
         d="m 87.087694,674.76847 c -0.0625,-0.75 -0.125,-1.7 -0.125,-2.2875 l -0.2625,0 c -0.2125,0.2375 -0.325,0.3125 -0.6625,0.3125 l -5.125,0 c -0.375,0 -0.525,-0.0125 -0.7125,-0.3125 l -0.2625,0 c -0.025,0.7 -0.1,1.5375 -0.1625,2.325 l 0.3875,0 c 0.15,-0.575 0.2625,-0.95 0.4125,-1.1625 0.1875,-0.275 0.4375,-0.3875 1.5125,-0.3875 l 0.775,0 0,6.225 c 0,1 -0.1125,1.125 -1.2625,1.2125 l 0,0.3625 3.725,0 0,-0.3625 c -1.2,-0.0875 -1.325,-0.225 -1.325,-1.2125 l 0,-6.225 0.8875,0 c 0.975,0 1.1875,0.1 1.4,0.3875 0.15,0.2 0.2875,0.5375 0.425,1.1625 l 0.375,-0.0375 z"
         style=""
         id="path4364" />
      <path
         d="m 95.286522,678.78097 c -0.6625,1.2875 -1.3625,2 -2.6875,2 -1.9625,0 -3.3875,-1.625 -3.3875,-4 0,-1.9125 1.15,-3.7 3.3,-3.7 1.3875,0 2.2,0.5375 2.5375,1.9125 l 0.3875,-0.0875 c -0.075,-0.7 -0.1625,-1.2375 -0.275,-1.95 -0.35,-0.0625 -1.2375,-0.35 -2.3,-0.35 -2.925,0 -5.0125,1.7625 -5.0125,4.425 0,2.025 1.425,4.2125 4.6625,4.2125 0.9375,0 2.05,-0.2625 2.4125,-0.3375 0.225,-0.425 0.5625,-1.3875 0.7375,-1.9875 l -0.375,-0.1375 z"
         style=""
         id="path4366" />
      <path
         d="m 96.5166,672.79347 0,0.375 c 0.95,0.0625 1.05,0.1125 1.05,1.2375 l 0,5.05 c 0,1.05 -0.1,1.15 -1.125,1.25 l 0,0.35 3.5375,0 0,-0.35 c -1.1625,-0.1 -1.275,-0.1625 -1.275,-1.2375 l 0,-1.975 0.95,0.25 c 0.15,0.0125 0.3875,0.0125 0.5875,-0.0125 1.2625,-0.15 2.5,-0.95 2.5,-2.6125 0,-0.825 -0.325,-1.425 -0.8375,-1.8 -0.5125,-0.375 -1.2375,-0.525 -2.15,-0.525 l -3.2375,0 z m 2.1875,1.1625 c 0,-0.3625 0.0375,-0.5125 0.1375,-0.5875 0.0875,-0.0875 0.35,-0.15 0.7,-0.15 1.025,0 1.9125,0.5625 1.9125,1.95 0,1.625 -1.025,2.05 -1.8375,2.05 -0.4,0 -0.75,-0.0875 -0.9125,-0.15 l 0,-3.1125 z"
         style=""
         id="path4368" />
      <path
         d="m 108.5164,674.66847 c -0.1,-0.8125 -0.175,-1.3125 -0.225,-1.7625 -0.475,-0.15 -1.025,-0.3 -1.6375,-0.3 -1.6625,0 -2.6625,1.0375 -2.6625,2.2875 0,1.4125 1.25,2.05 2.125,2.5 0.975,0.5125 1.65,0.9625 1.65,1.8875 0,0.9125 -0.55,1.5125 -1.5,1.5125 -1.325,0 -1.925,-1.3125 -2.125,-2.1125 l -0.375,0.1 c 0.075,0.625 0.25,1.7375 0.3375,2.0125 0.125,0.0625 0.3125,0.15 0.65,0.25 0.3125,0.1 0.7375,0.2 1.2625,0.2 1.725,0 2.875,-1.075 2.875,-2.425 0,-1.4 -1.175,-2 -2.225,-2.5375 -1.025,-0.5125 -1.625,-0.95 -1.625,-1.85 0,-0.7 0.45,-1.375 1.4125,-1.375 1.1,0 1.4625,0.9 1.6875,1.7 l 0.375,-0.0875 z"
         style=""
         id="path4370" />
      <path
         d="m 114.43965,679.68097 c -0.4625,0.425 -0.95,0.625 -1.4625,0.625 -0.9,0 -1.875,-0.7 -1.9,-2.3875 1.5125,-0.05 3.1,-0.175 3.325,-0.2125 0.2375,-0.05 0.2875,-0.15 0.3,-0.4 0,-1.0125 -0.8625,-1.9625 -1.9375,-1.9625 l -0.0125,0 c -0.6625,0 -1.3625,0.3625 -1.8875,0.95 -0.525,0.575 -0.8375,1.35 -0.8375,2.2125 0,1.4375 0.925,2.7 2.5,2.7 0.4,0 1.3,-0.225 2.1125,-1.25 l -0.2,-0.275 z m -1.9875,-3.85 c 0.6875,0 1.1125,0.6125 1.1125,1.275 -0.0125,0.1875 -0.0875,0.25 -0.3125,0.25 -0.7125,0.025 -1.4125,0.0375 -2.1,0.0375 0.175,-1.05 0.7375,-1.5625 1.2875,-1.5625 l 0.0125,0 z"
         style=""
         id="path4372" />
      <path
         d="m 117.3834,676.71847 0,-1.4 c -0.625,0.2625 -1.225,0.4125 -1.85,0.5125 l 0,0.2875 c 0.7125,0.1 0.7875,0.15 0.7875,0.975 l 0,2.6375 c 0,0.8375 -0.1,0.925 -0.9,0.9875 l 0,0.3375 3.025,0 0,-0.3375 c -1,-0.0625 -1.0625,-0.15 -1.0625,-1 l 0,-2.2875 c 0.275,-0.7 0.6875,-1.075 1,-1.075 0.2125,0 0.35,0.0875 0.5625,0.275 0.075,0.075 0.1875,0.0875 0.3375,0.025 0.25,-0.1125 0.4375,-0.3875 0.4375,-0.6625 0,-0.3 -0.3125,-0.65 -0.7625,-0.65 -0.6,0 -1.15,0.7 -1.5375,1.375 l -0.0375,0 z"
         style=""
         id="path4374" />
      <path
         d="m 126.35859,675.49347 -2.275,0 0,0.3375 c 0.7125,0.0875 0.8,0.2375 0.5875,0.825 -0.275,0.8375 -0.7,1.9875 -1.1125,2.9875 -0.35,-0.8625 -0.875,-2.2 -1.2,-3.075 -0.2125,-0.55 -0.175,-0.6375 0.5125,-0.7375 l 0,-0.3375 -2.6875,0 0,0.3375 c 0.6875,0.1125 0.7875,0.2 1.075,0.925 0.625,1.475 1.2125,2.9 1.7875,4.4375 l 0.3625,0 c 0.725,-1.8875 1.3875,-3.4625 1.825,-4.4 0.3375,-0.75 0.45,-0.8625 1.125,-0.9625 l 0,-0.3375 z"
         style=""
         id="path4376" />
      <path
         d="m 130.94355,679.68097 c -0.4625,0.425 -0.95,0.625 -1.4625,0.625 -0.9,0 -1.875,-0.7 -1.9,-2.3875 1.5125,-0.05 3.1,-0.175 3.325,-0.2125 0.2375,-0.05 0.2875,-0.15 0.3,-0.4 0,-1.0125 -0.8625,-1.9625 -1.9375,-1.9625 l -0.0125,0 c -0.6625,0 -1.3625,0.3625 -1.8875,0.95 -0.525,0.575 -0.8375,1.35 -0.8375,2.2125 0,1.4375 0.925,2.7 2.5,2.7 0.4,0 1.3,-0.225 2.1125,-1.25 l -0.2,-0.275 z m -1.9875,-3.85 c 0.6875,0 1.1125,0.6125 1.1125,1.275 -0.0125,0.1875 -0.0875,0.25 -0.3125,0.25 -0.7125,0.025 -1.4125,0.0375 -2.1,0.0375 0.175,-1.05 0.7375,-1.5625 1.2875,-1.5625 l 0.0125,0 z"
         style=""
         id="path4378" />
      <path
         d="m 133.8873,676.71847 0,-1.4 c -0.625,0.2625 -1.225,0.4125 -1.85,0.5125 l 0,0.2875 c 0.7125,0.1 0.7875,0.15 0.7875,0.975 l 0,2.6375 c 0,0.8375 -0.1,0.925 -0.9,0.9875 l 0,0.3375 3.025,0 0,-0.3375 c -1,-0.0625 -1.0625,-0.15 -1.0625,-1 l 0,-2.2875 c 0.275,-0.7 0.6875,-1.075 1,-1.075 0.2125,0 0.35,0.0875 0.5625,0.275 0.075,0.075 0.1875,0.0875 0.3375,0.025 0.25,-0.1125 0.4375,-0.3875 0.4375,-0.6625 0,-0.3 -0.3125,-0.65 -0.7625,-0.65 -0.6,0 -1.15,0.7 -1.5375,1.375 l -0.0375,0 z"
         style=""
         id="path4380" />
    </g>
  </g>
</svg>
